<svg xmlns="http://www.w3.org/2000/svg" width="106.42" height="72.83" viewBox="0 0 106.42 72.83">
  <defs>
    <style>
      .cls-1 {
        isolation: isolate;
      }

      .cls-2, .cls-9 {
        fill: #151837;
      }

      .cls-2 {
        opacity: 0.67;
      }

      .cls-11, .cls-3, .cls-4, .cls-5 {
        fill: none;
        stroke-linecap: round;
        stroke-linejoin: round;
      }

      .cls-3, .cls-4, .cls-5 {
        stroke: #151837;
      }

      .cls-4 {
        opacity: 0.25;
      }

      .cls-5, .cls-8 {
        opacity: 0.45;
      }

      .cls-6 {
        fill: #b5b5b5;
      }

      .cls-7 {
        fill: #fff;
      }

      .cls-10 {
        fill: #0653ff;
      }

      .cls-11 {
        stroke: #fff;
        opacity: 0.71;
        mix-blend-mode: overlay;
      }
    </style>
  </defs>
  <title>ventasLight</title>
  <g class="cls-1">
    <g id="Capa_1" data-name="Capa 1">
      <g>
        <g>
          <rect class="cls-2" x="71.7" y="41.13" width="28.51" height="8.83" rx="1.81"/>
          <rect class="cls-3" x="65.59" y="1.98" width="40.32" height="55.16" rx="2.96"/>
          <g>
            <line class="cls-4" x1="72.5" y1="11.93" x2="99.41" y2="11.93"/>
            <line class="cls-4" x1="72.5" y1="17.13" x2="99.41" y2="17.13"/>
            <line class="cls-5" x1="72.5" y1="22.33" x2="99.41" y2="22.33"/>
            <line class="cls-4" x1="78.07" y1="27.53" x2="93.84" y2="27.53"/>
          </g>
          <g>
            <path class="cls-6" d="M693.74,416.11s-13.43,10.13-18.3,11.32-26.55,0-26.55,0V410.56h4.28s7-12.12,9-12.74,14.16-2,15.28-.4-1.29,5.83-5.22,6.77,4.24,1,4.24,1l3.16,2.5" transform="translate(-639.39 -368.93)"/>
            <g>
              <rect class="cls-7" x="30.44" y="19.12" width="42.42" height="28.06" rx="2.87"/>
              <rect class="cls-3" x="30.44" y="19.12" width="42.42" height="28.06" rx="2.87"/>
              <line class="cls-3" x1="35.25" y1="24.35" x2="38.91" y2="24.35"/>
              <line class="cls-3" x1="35.25" y1="26.6" x2="43.81" y2="26.6"/>
              <g class="cls-8">
                <line class="cls-3" x1="39.71" y1="36.64" x2="45.65" y2="36.64"/>
                <line class="cls-3" x1="48.68" y1="36.64" x2="54.62" y2="36.64"/>
                <line class="cls-3" x1="57.65" y1="36.64" x2="63.59" y2="36.64"/>
              </g>
              <rect class="cls-9" x="30.44" y="39.26" width="42.42" height="3.74"/>
              <path class="cls-10" d="M708.46,394.66a1.74,1.74,0,1,1-1.74-1.74A1.74,1.74,0,0,1,708.46,394.66Z" transform="translate(-639.39 -368.93)"/>
            </g>
            <rect class="cls-6" x="0.5" y="52.92" width="9" height="8.43" rx="1.45"/>
            <rect class="cls-3" x="0.5" y="39.76" width="9" height="21.58" rx="2.32"/>
            <path class="cls-6" d="M667,397.06s8.36-.49,9.69-.06,1.08,1.85.32,3.25-3.24,3.84-5.71,4.24-3.47.49-3.47.49" transform="translate(-639.39 -368.93)"/>
            <path class="cls-3" d="M693.74,416.11s-13.43,10.13-18.3,11.32-26.55,0-26.55,0V410.56h4.28s7-12.12,9-12.74,14.16-2,15.28-.4-1.29,5.83-5.22,6.77a32.28,32.28,0,0,0-4.85,1.38l-.76,2.61s4.1,2.82,1.87,11.3" transform="translate(-639.39 -368.93)"/>
          </g>
          <g>
            <path class="cls-7" d="M669.83,394.82h0c-.57,0-7.49-3.92-7.49-7.48v-7.49l7.49-3.39,7.48,3.39v7.49C677.31,391,670.26,394.82,669.83,394.82Z" transform="translate(-639.39 -368.93)"/>
            <path class="cls-3" d="M669.83,394.82h0c-.57,0-7.49-3.92-7.49-7.48v-7.49l7.49-3.39,7.48,3.39v7.49C677.31,391,670.26,394.82,669.83,394.82Z" transform="translate(-639.39 -368.93)"/>
            <path class="cls-6" d="M669.83,392h0c-.4,0-5.22-2.73-5.22-5.22V381.6l5.22-2.36,5.22,2.36v5.22C675.05,389.41,670.13,392,669.83,392Z" transform="translate(-639.39 -368.93)"/>
            <path class="cls-3" d="M669.83,392h0c-.4,0-5.22-2.73-5.22-5.22V381.6l5.22-2.36,5.22,2.36v5.22C675.05,389.41,670.13,392,669.83,392Z" transform="translate(-639.39 -368.93)"/>
          </g>
          <line class="cls-11" x1="76.78" y1="45.54" x2="95.13" y2="45.54"/>
        </g>
        <path class="cls-9" d="M655.44,368.93l.26,1.37a3.39,3.39,0,0,0,2.67,2.67l1.38.27-1.38.26a3.4,3.4,0,0,0-2.67,2.67l-.26,1.38-.27-1.38a3.39,3.39,0,0,0-2.67-2.67l-1.37-.26,1.37-.27a3.37,3.37,0,0,0,2.67-2.67Z" transform="translate(-639.39 -368.93)"/>
        <path class="cls-9" d="M725.14,433.13l.27,1.38a3.37,3.37,0,0,0,2.67,2.67l1.37.26-1.37.27a3.37,3.37,0,0,0-2.67,2.67l-.27,1.37-.26-1.37a3.37,3.37,0,0,0-2.67-2.67l-1.38-.27,1.38-.26a3.37,3.37,0,0,0,2.67-2.67Z" transform="translate(-639.39 -368.93)"/>
      </g>
    </g>
  </g>
</svg>
