<svg id="Capa_1" data-name="Capa 1" xmlns="http://www.w3.org/2000/svg" width="106.57" height="78.9" viewBox="0 0 106.57 78.9">
  <defs>
    <style>
      .cls-1 {
        fill: #bac2f7;
      }

      .cls-2, .cls-5, .cls-6, .cls-7 {
        fill: none;
        stroke-linecap: round;
        stroke-linejoin: round;
      }

      .cls-2, .cls-5, .cls-7 {
        stroke: #002370;
      }

      .cls-3 {
        fill: #002370;
      }

      .cls-4 {
        fill: #fff;
      }

      .cls-5 {
        opacity: 0.45;
      }

      .cls-6 {
        stroke: #0653ff;
      }

      .cls-7 {
        stroke-dasharray: 2.15 4.29;
      }
    </style>
  </defs>
  <title>listaVentasDark</title>
  <g>
    <g>
      <g>
        <g>
          <polygon class="cls-1" points="86.94 24.33 70.32 24.33 63.42 24.33 46.81 24.33 46.81 29.98 46.81 59.68 54.92 59.68 63.42 59.68 70.32 59.68 86.94 59.68 86.94 24.33"/>
          <polygon class="cls-1" points="99 24.33 94.01 24.33 86.94 24.33 86.94 59.68 94.01 59.68 99 59.68 106.07 59.68 106.07 24.33 99 24.33"/>
        </g>
        <g>
          <line class="cls-2" x1="46.81" y1="29.98" x2="106.07" y2="29.98"/>
          <rect class="cls-3" x="94.01" y="24.33" width="4.99" height="35.35"/>
          <rect class="cls-3" x="63.42" y="24.33" width="6.9" height="35.35"/>
          <polygon class="cls-3" points="54.92 59.68 46.81 59.68 46.81 29.98 54.92 59.68"/>
          <rect class="cls-2" x="46.81" y="24.33" width="40.13" height="35.35"/>
          <rect class="cls-2" x="86.94" y="24.33" width="19.13" height="35.35"/>
          <rect class="cls-4" x="72.5" y="36.69" width="10.46" height="14.08"/>
          <rect class="cls-2" x="72.5" y="36.69" width="10.46" height="14.08"/>
          <line class="cls-5" x1="74.94" y1="39.93" x2="76.87" y2="39.93"/>
          <line class="cls-5" x1="74.94" y1="41.59" x2="79.16" y2="41.59"/>
          <line class="cls-6" x1="74.94" y1="47.65" x2="80.73" y2="47.65"/>
        </g>
        <g>
          <path class="cls-2" d="M678.94,420.7a4.42,4.42,0,0,1-4.4,4.87h-30.3a4.43,4.43,0,0,1-4.38-5.07l.51-3.49,5.15-35,.62-4.19h28.52l.42,4.19,3.49,35Z" transform="translate(-639.31 -365.89)"/>
          <path class="cls-1" d="M683.86,425.57h-9.32a4.42,4.42,0,0,0,4.4-4.87l-.37-3.69-3.49-35-.42-4.19h5.28l.81,4.19,6.81,35,.64,3.29A4.43,4.43,0,0,1,683.86,425.57Z" transform="translate(-639.31 -365.89)"/>
          <path class="cls-2" d="M683.86,425.57h-9.32a4.42,4.42,0,0,0,4.4-4.87l-.37-3.69-3.49-35-.42-4.19h5.28l.81,4.19,6.81,35,.64,3.29A4.43,4.43,0,0,1,683.86,425.57Z" transform="translate(-639.31 -365.89)"/>
          <path class="cls-2" d="M665.8,380.89V372.8a6.41,6.41,0,0,0-6.41-6.41h0A6.41,6.41,0,0,0,653,372.8v8.09" transform="translate(-639.31 -365.89)"/>
          <path class="cls-5" d="M672.75,377.57V372.8a6.41,6.41,0,0,0-6.42-6.41h0a6.41,6.41,0,0,0-6.41,6.41v5" transform="translate(-639.31 -365.89)"/>
        </g>
      </g>
      <g>
        <line class="cls-2" x1="0.85" y1="52.53" x2="1.85" y2="52.53"/>
        <line class="cls-7" x1="6.15" y1="52.53" x2="36.21" y2="52.53"/>
        <line class="cls-2" x1="38.35" y1="52.53" x2="39.35" y2="52.53"/>
      </g>
    </g>
    <path class="cls-3" d="M726.25,376l.27,1.37a3.36,3.36,0,0,0,2.67,2.67l1.37.27-1.37.26a3.36,3.36,0,0,0-2.67,2.67l-.27,1.38-.27-1.38a3.37,3.37,0,0,0-2.67-2.67l-1.37-.26,1.37-.27a3.37,3.37,0,0,0,2.67-2.67Z" transform="translate(-639.31 -365.89)"/>
    <path class="cls-3" d="M678.67,436.17l.26,1.38a3.39,3.39,0,0,0,2.67,2.67l1.38.26-1.38.27a3.37,3.37,0,0,0-2.67,2.67l-.26,1.37-.27-1.37a3.37,3.37,0,0,0-2.67-2.67l-1.37-.27,1.37-.26a3.39,3.39,0,0,0,2.67-2.67Z" transform="translate(-639.31 -365.89)"/>
  </g>
</svg>
