<svg id="Capa_1" data-name="Capa 1" xmlns="http://www.w3.org/2000/svg" width="256.76" height="211.21" viewBox="0 0 256.76 211.21">
  <defs>
    <style>
      .cls-1 {
        fill: #b5b5b5;
      }

      .cls-2, .cls-3, .cls-6, .cls-7 {
        fill: none;
        stroke-linecap: round;
        stroke-linejoin: round;
      }

      .cls-2, .cls-3, .cls-7 {
        stroke: #151837;
      }

      .cls-2, .cls-3, .cls-6 {
        stroke-width: 2.01px;
      }

      .cls-3 {
        opacity: 0.25;
      }

      .cls-4 {
        fill: #fff;
      }

      .cls-5 {
        fill: #0653ff;
      }

      .cls-6 {
        stroke: #fff;
      }

      .cls-7 {
        stroke-width: 4.01px;
      }

      .cls-8 {
        fill: #151837;
      }
    </style>
  </defs>
  <title>ListaProductosLight</title>
  <g>
    <g>
      <path class="cls-1" d="M479.86,442.91v12.91a15.36,15.36,0,0,1-7.25,1.81,15.06,15.06,0,0,1-15.23-14.88,14.5,14.5,0,0,1,2.54-8.21h11.37A8.48,8.48,0,0,1,479.86,442.91Z" transform="translate(-361.62 -408)"/>
      <path class="cls-2" d="M479.86,442.91v65.63a8.48,8.48,0,0,1-8.57,8.37h-67.2a8.48,8.48,0,0,1-8.57-8.37V442.91a8.48,8.48,0,0,1,8.57-8.37h67.2A8.48,8.48,0,0,1,479.86,442.91Z" transform="translate(-361.62 -408)"/>
      <line class="cls-3" x1="45.48" y1="39.23" x2="55.43" y2="39.23"/>
      <line class="cls-3" x1="45.48" y1="43.65" x2="63.31" y2="43.65"/>
    </g>
    <g>
      <path class="cls-1" d="M582.65,442.91v65.63a8.48,8.48,0,0,1-8.57,8.37h-67.2a8.48,8.48,0,0,1-8.57-8.37V442.91a8.48,8.48,0,0,1,8.57-8.37h67.2A8.48,8.48,0,0,1,582.65,442.91Z" transform="translate(-361.62 -408)"/>
      <path class="cls-2" d="M582.65,442.91v65.63a8.48,8.48,0,0,1-8.57,8.37h-67.2a8.48,8.48,0,0,1-8.57-8.37V442.91a8.48,8.48,0,0,1,8.57-8.37h67.2A8.48,8.48,0,0,1,582.65,442.91Z" transform="translate(-361.62 -408)"/>
      <line class="cls-3" x1="148.27" y1="39.23" x2="158.22" y2="39.23"/>
      <line class="cls-3" x1="148.27" y1="43.65" x2="166.1" y2="43.65"/>
    </g>
    <g>
      <path class="cls-1" d="M395.52,609.83V544.2a8.48,8.48,0,0,1,8.57-8.37h67.2a8.48,8.48,0,0,1,8.57,8.37v65.63a8.48,8.48,0,0,1-8.57,8.37h-67.2A8.48,8.48,0,0,1,395.52,609.83Z" transform="translate(-361.62 -408)"/>
      <path class="cls-2" d="M395.52,609.83V544.2a8.48,8.48,0,0,1,8.57-8.37h67.2a8.48,8.48,0,0,1,8.57,8.37v65.63a8.48,8.48,0,0,1-8.57,8.37h-67.2A8.48,8.48,0,0,1,395.52,609.83Z" transform="translate(-361.62 -408)"/>
      <line class="cls-3" x1="106.66" y1="197.51" x2="96.71" y2="197.51"/>
      <line class="cls-3" x1="106.66" y1="193.09" x2="88.84" y2="193.09"/>
    </g>
    <g>
      <path class="cls-2" d="M498.31,609.83V544.2a8.48,8.48,0,0,1,8.57-8.37h67.2a8.48,8.48,0,0,1,8.57,8.37v65.63a8.48,8.48,0,0,1-8.57,8.37h-67.2A8.48,8.48,0,0,1,498.31,609.83Z" transform="translate(-361.62 -408)"/>
      <line class="cls-3" x1="209.45" y1="197.51" x2="199.5" y2="197.51"/>
      <line class="cls-3" x1="209.45" y1="193.09" x2="191.63" y2="193.09"/>
    </g>
    <g>
      <g>
        <path class="cls-4" d="M425,518.58s3.8-10.55,7.05-19.39,2-13.61-3.62-12.37-21.35,44.55-21.35,44.55-1.69-1.6-5.37-.89" transform="translate(-361.62 -408)"/>
        <path class="cls-4" d="M450,536.84c-5.24,8-15.38,17.85-20.09,19.62s-6.56,13.07-9.42,13.78c-1.42.36-4.94-.45-9.06-2.2a46.54,46.54,0,0,1-13-8c-1.44-1,4.23-11.19,4.23-11.19s-8.59-11.18-8.33-16.5c.33-6.41,2.95-9.8,7.92-11.34a31,31,0,0,1,9-1.15l.81-.58,17.14-12c5.81-2.87,11.25.83,10.7,5.79l.25-.12c5.32-2.52,9.85,4.27,7.53,9.13l.12.06C451.86,524.39,455.17,529,450,536.84Z" transform="translate(-361.62 -408)"/>
        <path class="cls-1" d="M438.7,515.72a4,4,0,0,0-4.86-4.68c-2.58.81-5.62,6.19-6.78,8.65s-3.19.59-1.81-1.77l3.9-10.73c5.81-2.87,11.25.83,10.7,5.79l.25-.12Z" transform="translate(-361.62 -408)"/>
        <path class="cls-1" d="M412,519.23c-.22,3-4.61,11.31-4.61,11.31l-1.26.83-3.09-1c-1.92-.26-2.66-2.8-.36-4.09,1.4-.79,1.1-3.57-.47-5.27a31,31,0,0,1,9-1.15Z" transform="translate(-361.62 -408)"/>
        <path class="cls-1" d="M450,536.84c-5.24,8-15.38,17.85-20.09,19.62s-6.56,13.07-9.42,13.78c-1.42.36-4.94-.45-9.06-2.2,7.5-2.89,9.57-11.88,9.57-11.88s13.16-6.58,22.3-17.49S446,525.08,446,525.08l1.8-3C451.86,524.39,455.17,529,450,536.84Z" transform="translate(-361.62 -408)"/>
        <path class="cls-4" d="M439.86,513c-2.16,5.64-4.33,7.86-4.33,7.86" transform="translate(-361.62 -408)"/>
        <path class="cls-4" d="M447.64,522s-.24,1.9-4.35,6.19" transform="translate(-361.62 -408)"/>
        <path class="cls-4" d="M428.19,557.61A41.66,41.66,0,0,1,411.44,552" transform="translate(-361.62 -408)"/>
      </g>
      <g>
        <path class="cls-2" d="M425,518.58s3.8-10.55,7.05-19.39,2-13.61-3.62-12.37-21.35,44.55-21.35,44.55-1.69-1.6-5.37-.89" transform="translate(-361.62 -408)"/>
        <path class="cls-2" d="M429.15,507.19c5.82-2.87,11.25.84,10.71,5.79,5.42-2.83,10.13,4.06,7.78,9,4.16,2.3,7.6,6.9,2.35,14.85s-15.38,17.85-20.09,19.62-6.55,13.08-9.43,13.78S406,566.88,398.41,560c-1.44-1.06,4.23-11.19,4.23-11.19s-8.6-11.19-8.33-16.5c.48-9.54,6-12.37,16.89-12.49" transform="translate(-361.62 -408)"/>
        <path class="cls-2" d="M439.86,513c-2.16,5.64-4.33,7.86-4.33,7.86" transform="translate(-361.62 -408)"/>
        <path class="cls-2" d="M447.64,522s-.24,1.9-4.35,6.19" transform="translate(-361.62 -408)"/>
        <path class="cls-2" d="M428.19,557.61A41.66,41.66,0,0,1,411.44,552" transform="translate(-361.62 -408)"/>
      </g>
    </g>
    <g>
      <ellipse class="cls-5" cx="116.28" cy="29.59" rx="15.22" ry="14.86"/>
      <polyline class="cls-6" points="110.76 29.41 114.56 33.12 121.8 26.05"/>
    </g>
    <g>
      <ellipse class="cls-7" cx="174.58" cy="162.85" rx="11.4" ry="11.13"/>
      <line class="cls-7" x1="182.65" y1="170.72" x2="196.02" y2="183.78"/>
    </g>
    <path class="cls-8" d="M493.12,408l.54,2.73a6.77,6.77,0,0,0,5.42,5.29l2.79.53-2.79.53a6.77,6.77,0,0,0-5.42,5.29l-.54,2.73-.54-2.73a6.77,6.77,0,0,0-5.42-5.29l-2.79-.53,2.79-.53a6.77,6.77,0,0,0,5.42-5.29Z" transform="translate(-361.62 -408)"/>
    <path class="cls-8" d="M370.37,475.72l.54,2.73a6.78,6.78,0,0,0,5.43,5.3l2.79.52-2.79.53a6.78,6.78,0,0,0-5.43,5.3l-.54,2.72-.54-2.72a6.77,6.77,0,0,0-5.42-5.3l-2.79-.53,2.79-.52a6.77,6.77,0,0,0,5.42-5.3Z" transform="translate(-361.62 -408)"/>
    <path class="cls-8" d="M609.63,568.47l.54,2.72a6.77,6.77,0,0,0,5.42,5.3l2.79.53-2.79.52a6.77,6.77,0,0,0-5.42,5.3l-.54,2.73-.54-2.73a6.78,6.78,0,0,0-5.43-5.3l-2.79-.52,2.79-.53a6.78,6.78,0,0,0,5.43-5.3Z" transform="translate(-361.62 -408)"/>
  </g>
</svg>
