<svg id="Capa_1" data-name="Capa 1" xmlns="http://www.w3.org/2000/svg" width="256.71" height="216.21" viewBox="0 0 256.71 216.21">
  <defs>
    <style>
      .cls-1 {
        fill: #bac2f7;
      }

      .cls-2, .cls-3, .cls-6, .cls-7 {
        fill: none;
        stroke-linecap: round;
        stroke-linejoin: round;
      }

      .cls-2, .cls-3, .cls-7 {
        stroke: #002370;
      }

      .cls-2, .cls-3, .cls-6 {
        stroke-width: 2.03px;
      }

      .cls-3 {
        opacity: 0.25;
      }

      .cls-4 {
        fill: #fff;
      }

      .cls-5 {
        fill: #0653ff;
      }

      .cls-6 {
        stroke: #fff;
      }

      .cls-7 {
        stroke-width: 4.06px;
      }

      .cls-8 {
        fill: #002370;
      }
    </style>
  </defs>
  <title>ListaProductosDark</title>
  <g>
    <g>
      <path class="cls-1" d="M480.51,192v13.22a15.22,15.22,0,0,1-19.94-21.79h11.37A8.57,8.57,0,0,1,480.51,192Z" transform="translate(-362.29 -156.26)"/>
      <rect class="cls-2" x="33.89" y="27.17" width="84.33" height="84.33" rx="8.57"/>
      <line class="cls-3" x1="45.47" y1="40.16" x2="55.42" y2="40.16"/>
      <line class="cls-3" x1="45.47" y1="44.69" x2="63.29" y2="44.69"/>
    </g>
    <g>
      <rect class="cls-1" x="136.67" y="27.17" width="84.33" height="84.33" rx="8.57"/>
      <rect class="cls-2" x="136.67" y="27.17" width="84.33" height="84.33" rx="8.57"/>
      <line class="cls-3" x1="148.24" y1="40.16" x2="158.19" y2="40.16"/>
      <line class="cls-3" x1="148.24" y1="44.69" x2="166.07" y2="44.69"/>
    </g>
    <g>
      <rect class="cls-1" x="33.89" y="130.87" width="84.33" height="84.33" rx="8.57"/>
      <rect class="cls-2" x="33.89" y="130.87" width="84.33" height="84.33" rx="8.57"/>
      <line class="cls-3" x1="106.64" y1="202.2" x2="96.69" y2="202.2"/>
      <line class="cls-3" x1="106.64" y1="197.67" x2="88.82" y2="197.67"/>
    </g>
    <g>
      <rect class="cls-2" x="136.67" y="130.87" width="84.33" height="84.33" rx="8.57"/>
      <line class="cls-3" x1="209.41" y1="202.2" x2="199.46" y2="202.2"/>
      <line class="cls-3" x1="209.41" y1="197.67" x2="191.59" y2="197.67"/>
    </g>
    <g>
      <g>
        <path class="cls-4" d="M425.67,269.46s3.8-10.79,7.06-19.84,2-13.93-3.62-12.67-21.35,45.61-21.35,45.61-1.69-1.64-5.37-.92" transform="translate(-362.29 -156.26)"/>
        <path class="cls-4" d="M450.64,288.16c-5.24,8.14-15.37,18.28-20.08,20.08s-6.56,13.38-9.43,14.12c-1.42.36-4.93-.47-9.05-2.26a46.49,46.49,0,0,1-13-8.24c-1.44-1.08,4.23-11.45,4.23-11.45S394.7,289,395,283.51c.33-6.56,3-10,7.92-11.61a30.6,30.6,0,0,1,9-1.18l.81-.59,17.13-12.32c5.81-2.95,11.25.85,10.71,5.93l.24-.13c5.32-2.58,9.85,4.37,7.53,9.34l.12.06C452.51,275.41,455.82,280.1,450.64,288.16Z" transform="translate(-362.29 -156.26)"/>
        <path class="cls-1" d="M439.35,266.54c.63-3-2.28-5.65-4.85-4.79s-5.63,6.33-6.79,8.85-3.18.61-1.8-1.81l3.89-11c5.81-2.95,11.25.85,10.71,5.93l.24-.13Z" transform="translate(-362.29 -156.26)"/>
        <path class="cls-1" d="M412.67,270.13c-.23,3.13-4.61,11.57-4.61,11.57l-1.26.86-3.09-1.08c-1.93-.26-2.66-2.86-.36-4.18,1.4-.81,1.09-3.66-.47-5.4a30.6,30.6,0,0,1,9-1.18Z" transform="translate(-362.29 -156.26)"/>
        <path class="cls-1" d="M450.64,288.16c-5.24,8.14-15.37,18.28-20.08,20.08s-6.56,13.38-9.43,14.12c-1.42.36-4.93-.47-9.05-2.26,7.49-3,9.56-12.16,9.56-12.16s13.16-6.74,22.3-17.91,2.66-13.91,2.66-13.91l1.8-3.11C452.51,275.41,455.82,280.1,450.64,288.16Z" transform="translate(-362.29 -156.26)"/>
        <path class="cls-4" d="M440.51,263.73c-2.16,5.77-4.32,8-4.32,8" transform="translate(-362.29 -156.26)"/>
        <path class="cls-4" d="M448.29,273s-.24,1.94-4.35,6.33" transform="translate(-362.29 -156.26)"/>
        <path class="cls-4" d="M428.84,309.42a41,41,0,0,1-16.74-5.7" transform="translate(-362.29 -156.26)"/>
      </g>
      <g>
        <path class="cls-2" d="M425.67,269.46s3.8-10.79,7.06-19.84,2-13.93-3.62-12.67-21.35,45.61-21.35,45.61-1.69-1.64-5.37-.92" transform="translate(-362.29 -156.26)"/>
        <path class="cls-2" d="M429.8,257.8c5.82-2.93,11.25.87,10.71,5.93,5.42-2.89,10.13,4.16,7.78,9.23,4.16,2.35,7.6,7.06,2.35,15.2s-15.38,18.27-20.08,20.08-6.56,13.39-9.43,14.11-14.46-3.43-22.06-10.49c-1.44-1.09,4.22-11.46,4.22-11.46S394.7,289,395,283.51c.48-9.77,6-12.66,16.89-12.78" transform="translate(-362.29 -156.26)"/>
        <path class="cls-2" d="M440.51,263.73c-2.16,5.77-4.32,8-4.32,8" transform="translate(-362.29 -156.26)"/>
        <path class="cls-2" d="M448.29,273s-.24,1.94-4.35,6.33" transform="translate(-362.29 -156.26)"/>
        <path class="cls-2" d="M428.84,309.42a41,41,0,0,1-16.74-5.7" transform="translate(-362.29 -156.26)"/>
      </g>
    </g>
    <g>
      <circle class="cls-5" cx="116.26" cy="30.29" r="15.22"/>
      <polyline class="cls-6" points="110.74 30.11 114.54 33.91 121.78 26.67"/>
    </g>
    <g>
      <circle class="cls-7" cx="174.55" cy="166.71" r="11.4"/>
      <line class="cls-7" x1="182.61" y1="174.77" x2="195.99" y2="188.15"/>
    </g>
    <path class="cls-8" d="M493.76,156.26l.54,2.79a6.85,6.85,0,0,0,5.42,5.42l2.79.54-2.79.54A6.85,6.85,0,0,0,494.3,171l-.54,2.79-.54-2.79a6.85,6.85,0,0,0-5.42-5.42L485,165l2.79-.54a6.85,6.85,0,0,0,5.42-5.42Z" transform="translate(-362.29 -156.26)"/>
    <path class="cls-8" d="M371,225.59l.54,2.79A6.83,6.83,0,0,0,377,233.8l2.79.54-2.79.54a6.85,6.85,0,0,0-5.42,5.43L371,243.1l-.54-2.79a6.86,6.86,0,0,0-5.42-5.43l-2.79-.54,2.79-.54a6.84,6.84,0,0,0,5.42-5.42Z" transform="translate(-362.29 -156.26)"/>
    <path class="cls-8" d="M610.25,320.54l.54,2.79a6.85,6.85,0,0,0,5.42,5.42l2.79.54-2.79.54a6.85,6.85,0,0,0-5.42,5.42l-.54,2.79-.54-2.79a6.85,6.85,0,0,0-5.42-5.42l-2.79-.54,2.79-.54a6.85,6.85,0,0,0,5.42-5.42Z" transform="translate(-362.29 -156.26)"/>
  </g>
</svg>
