<svg id="Capa_1" data-name="Capa 1" xmlns="http://www.w3.org/2000/svg" width="1068.67" height="399.55" viewBox="0 0 1068.67 399.55">
  <defs>
    <style>
      .cls-1 {
        fill: #fff;
      }

      .cls-2 {
        fill: #090d1f;
      }
    </style>
  </defs>
  <title>logoLightMercadoDosPuentes</title>
  <path class="cls-1" d="M276.15,388.94c1,4.14,3,7.86,5,11.59,5.11,9.84,5,20.46,4.85,31.09a45.76,45.76,0,0,0,4.68,20.23c7.07,15,12.07,30.73,12.28,47.49.19,14.42-3.4,28.07-11.4,40.16-4.64,7-12,11-19.23,15.06-13.75,7.65-28.82,8.12-43.94,8.7a123,123,0,0,1-37-3.89c-13.1-3.53-22.62-11.92-29.29-23.44-11.07-19.13-13.44-40.06-12.75-61.77.36-11.11,4-21.51,5.38-32.35.94-7.19,1.34-14.41,1.79-21.63,1.06-16.74,4.25-32.94,13.15-47.44,3.8-6.18,8.67-11.79,15.2-15.17,9.56-4.94,23.32-2.21,28.64,11.8,3.45,9.11,3.8,18.55,3,28.05a89,89,0,0,0,.18,16.81c.22,2.31,1.29,3.43,3.57,3.38a54.86,54.86,0,0,1,8.59.33c3,.4,3.83-1.78,4-4.23.41-4.47.63-9,1.15-13.43,1.8-15.62,11.11-24.89,27.74-22a16.35,16.35,0,0,0,2.22.1l1,.36a3.82,3.82,0,0,0,2.8,1.75l3.74,2.48a3,3,0,0,0,2.28,2.63l1,1.11c-.22,1,.26,1.49,1.14,1.74A.38.38,0,0,0,276.15,388.94Zm-54.22,40.9a3.86,3.86,0,0,0-2.93-.43,3.72,3.72,0,0,0-3.78-.5l-2.25-.18a1.78,1.78,0,0,0-2.25-.66l-2-.93c-1.56-1.63-1.86-3.64-1.83-5.8.09-6.21.38-12.45.07-18.65-.2-4.1-2.63-5.86-6.26-5.61-2.82.2-4.81,2.75-4.88,6.42a132.52,132.52,0,0,1-.82,13.79c-1,8.39-1.87,16.81-1.07,25.3.23,2.45,1.36,3.81,3.75,3.57,10.41-1,20.81-1.91,31.28-2.11a121.6,121.6,0,0,0,15.2-1.57c4.48-.66,6.55-3.41,6.33-8-.13-2.6-.53-5.19-.83-7.78-1-8.51,1.73-16.89.92-25.39-.14-1.43.51-3.3-1.23-4-2-.81-3.16,1.05-4.35,2.22a7,7,0,0,0-1.32,2.62,32.87,32.87,0,0,0-1.56,14c.44,4.95-.35,9.38-3.7,13.18a2.74,2.74,0,0,0-2.19.53,1,1,0,0,0-1.56.19l-8.2,0C225,429.06,223.47,429.66,221.93,429.84Z" transform="translate(-149.26 -185.3)"/>
  <path class="cls-1" d="M241.26,195.2a2.76,2.76,0,0,0,2,1.73c.67,8.81,1.47,17.61,2,26.42.93,15.76,1.55,31.54,2.63,47.28.28,4.13-.54,8.47,1.53,12.4a.24.24,0,0,0,0,.36c-1.88,2.53-.76,5.38-.87,8.09-.89,1.36-1.79,2.71-2.69,4.07a1.42,1.42,0,0,0-1.41.89,17,17,0,0,1-16.67,1.81,3.84,3.84,0,0,0-2.64-2.52,2.39,2.39,0,0,0-1.59-2c-1.74-7.08-3.8-14.09-4-21.47-.06-2.17-1.63-3.14-3.65-1.84-1.31.82-3,1.3-3.54,3.09L210,275c-1.57.27-3.21.41-4.09,2.05l-1.14.37c-3.83-.07-7.67-.12-11.28-1.69l-.9-.35-1.17-.75h.11c-1.16-1.57-2.84-3-4.61-2.27s-.83,2.88-.87,4.4c-.14,5.24-1.56,10.25-2.58,15.33l-4.27,3.67c-1.51.75-2.71,2-4.55,2.24-5.09.79-8.8-2.48-12.87-4.36-2.63-1.22-1.09-4.54-1.37-6.93a28.22,28.22,0,0,1-.2-4.11c.61-23.58,1.46-47.16,1.29-70.76,0-4.48.58-9,1-13.43.25-2.82,1.7-4.64,4.66-5,2-.23,4-.35,5.94-.65,5.13-.79,8.14,1.5,10.21,6.12,5.17,11.6,10.6,23.08,16,34.57.48,1,.37,2.87,2,2.77s2.36-1.7,2.91-3.1c1.41-3.61,2.6-7.33,4.66-10.62,5.17-8.27,8.56-17.37,12.53-26.2l0,0c1.39-.66,2.1-2,3.11-3l5.73-1.86c2.94-.28,5.48,1.33,8.26,1.75h0A3.61,3.61,0,0,0,241.26,195.2Z" transform="translate(-149.26 -185.3)"/>
  <path class="cls-1" d="M785.56,433c-3.9.27-7.34,0-9.8-3.94-1-1.66-.64-3.31-1.33-4.82-.35-6.53-1.31-13-1-19.58.05-.94.32-2-.66-2.72,1.72-2,.75-4.33.68-6.54,1.36-2.82,1-5.78.78-8.74a15.84,15.84,0,0,0-.09-6.68,9,9,0,0,0-.1-4.56c1.08-7.7.37-15.45.64-23.17.11-3.24-.22-6.55.28-9.72.93-5.94.12-12.63,8.62-14.82,4.75-1.22,8.28-1.74,11.73,1.82,3.15,3.25,5.14,7.3,7.43,11.1,3.16,5.25,6.07,10.66,9.6,15.69.43.62.71,1.4,1.64,1.15s.83-1.14.86-1.86c.14-4.12.42-8.25.35-12.36-.08-4.88.68-9.68,3.9-13.26,2.71-3,6.2-5.63,11-4.12,5.49,1.7,9.13,5.1,10.15,10.8,2.07,11.71,2,23.57,2,35.42,0,16.22,0,32.44.14,48.65,0,3.75-.81,7-3.42,9.75a.57.57,0,0,0-.54.44l-1.47.51c-4.24.63-8.74-.4-12.71,2-3,.36-4.81-1.26-6.4-3.58-5.12-7.47-10.34-14.86-15.53-22.28-.35-.51-.67-1.06-1.51-1-2.21,5.12-1.77,10.83-3.39,16.14-1.4,4.61-3.87,7.91-8.46,9.51A4.39,4.39,0,0,0,785.56,433Z" transform="translate(-149.26 -185.3)"/>
  <path class="cls-1" d="M1118,254.12c0,8.91-1.7,17.57-3.86,26.17-3,12.12-10.7,20.4-22.2,24.47-6.75,2.38-14.26,1.41-21-.8-5.16-1.7-10.31-3.95-14.67-7.75-5.58-4.86-8-11.2-10.08-17.91a103.09,103.09,0,0,1-4.78-27.83c-.28-9.43-.09-19,3.2-28.08.88-2.44,1.23-5.08,1.93-7.6a29.79,29.79,0,0,1,8.62-14.13c4.65-4.33,9.77-8.34,15.62-9.93,5.15-1.39,11.23-1.7,16.49,1.1,10.69,5.7,19.68,13.11,23.91,25a82.3,82.3,0,0,1,4.29,15.55c1,6.6,1.87,13.21,2.51,19.86C1118,252.86,1118,253.49,1118,254.12Zm-26-8.85c.2-5.72-2.77-16-5.36-19.72-3.49-5.05-10.56-5.62-13.3-.54-3,5.45-5.88,11.34-5.84,17.65,0,10.06.81,20.17,6.59,29,.64,1,1.33,2.34,2.32,2.12,3-.67,6.32-.53,8.24-4C1089.05,261.8,1093.64,253.93,1092,245.27Z" transform="translate(-149.26 -185.3)"/>
  <path class="cls-1" d="M1178.55,237.29a25.9,25.9,0,0,1-9.67-9.38c-1.84-2.88-6.56-4.11-9.62-2.61-2.69,1.33-2.44,5.69.5,8.61A61.79,61.79,0,0,0,1179.49,247c2.3,1,3.79,3.52,6.65,3.27l0,0c2.26,3.77,5.68,6.59,8.3,10.07,6,7.88,8.5,16.74,5.78,26.29-2.28,8-8.56,12.91-16.14,15.83-1.69.65-3.18,1.93-5.1,2a5,5,0,0,0-3,1.25l-2.22.32a1.25,1.25,0,0,0-1.59.22c-13,1.73-25.22-.48-36.35-7.71a13.91,13.91,0,0,1-5.71-7.55c-1.84-5.25-3-10.23-1.95-16,1.15-6.17,8.54-10.7,14-7.41,5.14,3.09,10.43,5.9,14.33,10.89,3.5,4.49,6.55,2.74,9.4-.8,1.73-2.15.13-4.2-1.56-5.48a147.67,147.67,0,0,0-13.12-9.18c-8.74-5.21-15.7-11.9-18.92-21.73-2.7-8.24-4.37-16.72-2-25.36,3.08-11.33,11.61-17.05,22-20.73,12.23-4.33,29,.32,36.66,10.16,1.8,2.29,2.75,5,4.48,7.3.29,2.44,1,4.93.79,7.32-1.17,10.87,0,14.06-12.39,16C1180.72,236.15,1179.29,236,1178.55,237.29Z" transform="translate(-149.26 -185.3)"/>
  <path class="cls-1" d="M734.21,185.55l1.53,0a2,2,0,0,0,.73.14c7.72-1.91,11.12,3,14,8.82a200.74,200.74,0,0,1,10,25.05,31.26,31.26,0,0,0,1.75,3.65,24.29,24.29,0,0,0,2.57,7.15c1.79,8,5.63,15.39,7.28,23.44,2,10,5.13,19.7,6.83,29.75,1,5.86-2.42,10.79-8.33,11.48-10.41,1.22-12.69-.29-16.16-11-1.17-3.65-3-7.09-3.36-11-.1-1.34-1.13-1.53-2.18-1.47-7,.35-13.9,1.53-20.91,1a1.92,1.92,0,0,0-2,1.45c-.89,3.37-3,6.16-4.11,9.49-1.58,4.8-4.74,8.94-7.65,13.12-.29.42-.62.81-1.2.63-4.22-1.32-8.48.47-12.77-.28-4-.7-5.68-2.14-5.41-6.26a66.8,66.8,0,0,1,3.69-18.16,335.39,335.39,0,0,0,10.19-33.77c2-8.09,4.89-15.93,6.36-24.17.4-2.21,1.65-4.38,2.11-6.7a1.27,1.27,0,0,0,.53-1.91c2.13-4.63,2.18-9.95,6-14.1C726.81,188.62,729.8,186.15,734.21,185.55Zm6.15,48.63-.81-7.24a1.44,1.44,0,0,0-1.36-1.81c-.84-.13-1,.63-1,1.21,0,1.18-1.7,1.56-1.3,2.88-.1.86.14,2-.33,2.54-3.24,3.47-2.51,8-3.43,12.09-.2.89-.59,2.19,1.4,2.27,8.2.36,9.69-1.43,7.57-9.46A3.47,3.47,0,0,0,740.36,234.18Z" transform="translate(-149.26 -185.3)"/>
  <path class="cls-1" d="M395.09,290.28c0,.31,0,.61,0,.91-3.12,2.49-6.2,5-10.34,5.62l-2.36.09-8.19-2.28-3.65-2.41a.94.94,0,0,0-.72-1l-3.66-5-.83-1.06-.84-1.13c-.84-1.76-1.38-4.39-3.77-3.93-2.54.48-1.74,3.21-1.77,5-.09,5.65-2.65,9.43-7.52,12.38-4.71,2.86-16-1.43-16.27-8.21-.36-8.8-1.47-17.58-1.5-26.41-.06-19.81-.76-39.62,1.24-59.42,1.08-10.68,4.37-11.29,12.71-13.08a40.47,40.47,0,0,1,26.6,3.55A2.13,2.13,0,0,0,376,195a7.26,7.26,0,0,0,3.31,3l0-.08.83,1c9.76,10.07,13.41,22.31,12.85,36.07a45.08,45.08,0,0,1-3.44,15.94,15.26,15.26,0,0,1-3.37,4.4.94.94,0,0,0-.81,1c-.85.83-2,1.4-2.2,2.77-3,1.25-3,3-.8,5.07a.32.32,0,0,0,.24.41,11.72,11.72,0,0,0,3.6,5.36c.13.21.27.41.41.62C389.46,277,393.07,283.32,395.09,290.28ZM372,233.67a16.16,16.16,0,0,0-9.37-15c-1.39-.63-3.16-1.71-4.59-.8s-.92,2.91-.8,4.5c.08,1,0,2,.15,3,.58,5.81-1,11.65.28,17.45.27,1.28-.11,2.91,2,2.94C365.12,245.88,372,239.11,372,233.67Z" transform="translate(-149.26 -185.3)"/>
  <path class="cls-1" d="M688.23,407l-1.29,5.15c-1.18.67-1,2-1.56,3-1.19,1-1,2.52-1.26,3.84-1.25.53-1.69,1.74-2.39,2.76-1.56,2.25-3,4.66-5.39,6.12-8.42,5.21-17.33,5.22-26.31,1.79-13.4-5.1-18.57-15.62-19.56-29.28-.57-7.82-.5-15.65-1.2-23.44.06-3.71.15-7.41.18-11.11,0-1.19.47-2.5-.76-3.42,1.13-.48,1.2-1.09.2-1.82,1.36-2.46.55-5.16.82-7.74a9.58,9.58,0,0,0,.49-5.19c.08-.52.15-1,.23-1.56.55-.36.85-.8.43-1.44,0-.36,0-.72,0-1.08a2.3,2.3,0,0,0,1-2.66l.4-1.36c.64-.36,1.19-.77.93-1.64.19-.71.37-1.43.55-2.14,1.14-.44,1.25-1.33,1.05-2.36.15-.46.31-.91.46-1.36a2.1,2.1,0,0,0,1.42-1.61c7.79-5.29,14.41-3.72,18.84,4.48.15.52.29,1.05.44,1.58v1.37a3.05,3.05,0,0,0,.23,3.06v12a1.19,1.19,0,0,0-.14,1.55,52.3,52.3,0,0,0-.57,10.46l.07.73,0,6a.86.86,0,0,0,.07,1.44c-.06,1.26-.13,2.53-.19,3.8l-.13.72c0,.24,0,.48,0,.72a3.48,3.48,0,0,0,.28,3c.08,1,.17,2,.25,3l-.09,1.53,0,3c-.7,1.81-.24,3.57.28,5.32-.71,1.79.2,3.45.46,5.16.33,1.4.1,3.51,1.49,3.88s2.26-1.61,3.3-2.64a8.71,8.71,0,0,0,2-4.36c1.78-6.82,1.42-13.78,1.45-20.73,0-8.2,0-16.4.3-24.59.2-6.18,0-12.55,4.67-17.58l2.44-1.27a2.73,2.73,0,0,0,1.71-1.56c8.64-2.35,14.24,1.26,15.07,10.3.67,7.31.75,14.69.91,22,.25,11.46.88,22.94-.58,34.37a20,20,0,0,1-.65,2.5l-.25.12.26-.2c.59,1.67,0,3.35,0,5C688.19,405.45,687.78,406.16,688.23,407Z" transform="translate(-149.26 -185.3)"/>
  <path class="cls-1" d="M814.49,272c2.35.18,3.48-1.4,3.77-3.25.43-2.72.44-5.6-2.39-7.28-4.17-2.48-7.64-6-11.69-8.47A37.3,37.3,0,0,1,790,237.41c-6-12.09-7-24.19.6-35.81,11-16.88,33.57-18.2,48-3.14,5.33,5.54,7,16.17,3.4,21.45a11.1,11.1,0,0,1-18.33.39c-1.17-1.6-2.56-3.05-3.82-4.59-2.06-2.53-4.47-3-7.11-1.06s-3.32,6.53-1.78,9c3,4.88,8,7.3,12.59,10.18,8.7,5.43,17.3,11.06,22,20.62,3.28,6.62,5.5,13.81,3.23,21.07a27.28,27.28,0,0,1-14.19,16.77c-7.86,4-16.18,5.83-24.57,4.14-9.76-2-18.56-5.86-22-17-1.27-4.09-1.15-8.14-1.79-12.15-.58-3.62,1.79-6.45,5.62-7.67,4.26-1.36,7.51.53,10.38,3.19,2.17,2,3.91,4.45,5.89,6.65,1.08,1.2,2.18,2.45,4,2.56C813,272.86,813.73,272.56,814.49,272Z" transform="translate(-149.26 -185.3)"/>
  <path class="cls-1" d="M439.75,390.58c-1.05.77-.81,2-1.09,3-3.24,12.52-8.19,24.27-19.31,31.71-7.43,5-16,6.85-24.91,3.34-3.42-1.35-6.05-4-8.52-6.52a40.09,40.09,0,0,1-9.29-15.36c-4.39-12.76-5.21-26-4.29-39.18,1-13.71,5.49-26.12,17.44-34.47a53.41,53.41,0,0,1,6.22-3.29,2.12,2.12,0,0,0,2.26-.72,1.48,1.48,0,0,0,1.54-.67l4.42-.33c5.88-.39,11.16,1.67,16.38,4a3.22,3.22,0,0,0,2,1.67l.05,0a2.2,2.2,0,0,0,1.68,1.45,1.87,1.87,0,0,0,1.54,1.42,1.35,1.35,0,0,0,1.3,1.43,11.5,11.5,0,0,0,2.85,3.75,1.8,1.8,0,0,0,1.06,1.67,11.87,11.87,0,0,0,2,4.31,3,3,0,0,0,1,2.39.34.34,0,0,0,.19.5,1.89,1.89,0,0,0,1.05,2.1,2.93,2.93,0,0,0,.67,2.55c.55,2.48.15,5.19,1.83,7.39.06.49.13,1,.2,1.45a1.12,1.12,0,0,0,.47,1.58c.12.72.24,1.44.37,2.16a1.79,1.79,0,0,0,.39,2.34,4.62,4.62,0,0,0,.66,2.9c-1.16,2.8-.35,5.56.16,8.32,0,.47,0,.94,0,1.4-1.77,1.54-.2,3,.07,4.54ZM416.12,377.9c-1.09-6.79-1.69-14.07-6.48-20-4.12-5.12-9.48-4.56-12.34,1.42a18.17,18.17,0,0,0-1.51,5c-1.26,7.73-.74,15.43.08,23.13.57,5.26,3.11,9.73,6.15,13.88,1.89,2.58,4,2.54,5.83.14C413.2,394.63,415.19,386.61,416.12,377.9Z" transform="translate(-149.26 -185.3)"/>
  <path class="cls-1" d="M1005,431.81c-5.71-3.23-7.83-9-10.37-14.52a40.65,40.65,0,0,1-1.52-4.52c-1.57-4.79.47-11.12,4.37-13.51,2.57-1.58,8.82.05,11.94,3.3,2.33,2.42,4.49,5,6.66,7.59a4.9,4.9,0,0,0,4.15,2.13,6.28,6.28,0,0,0,5.36-2.92c1-1.77-.24-3.4-1.18-4.81-2.71-4.05-7-6.34-10.71-9.24-7.47-5.78-14.09-12.44-17.13-21.59-4-12.08-3-24,5.49-33.76,3.83-4.41,9.41-8.4,14.93-9.94,6.25-1.76,13.3-.51,19.76,2,10.21,3.89,17.61,16.34,15.7,27.11a12.06,12.06,0,0,1-7.72,9.29,9.93,9.93,0,0,1-11.66-3.82c-.72-1-1.53-2-2.22-3-2.23-3.41-5.25-4.74-7.64-3.32s-2.63,6.21-.69,9.21c2.17,3.34,5.3,5.54,8.69,7.46,6.45,3.64,12.59,7.63,17.26,13.57,5.78,7.38,7.66,15.76,6.88,24.91-.13,1.49-.17,3-.25,4.48-1.34,1.35-1.28,3.23-1.84,4.88-3.44,5.24-7.71,9.52-13.72,11.78l-13.45,2.65a7.18,7.18,0,0,0-3.82.11c-1.47-.54-2.92-1.2-4.53-.54l-1.54-.34a6.05,6.05,0,0,0-3.72-1.28l-1.51-.3C1009.31,433.1,1007.05,432.64,1005,431.81Z" transform="translate(-149.26 -185.3)"/>
  <path class="cls-1" d="M317.91,290.7a4.4,4.4,0,0,0-.83,2.69,2,2,0,0,0-1,1.7l-2,1.3c-2.16.74-4.9-.6-6.6,1.82l-1.48.27a14.63,14.63,0,0,0-6,0l-3-.14a14.48,14.48,0,0,0-5.25,0c-6-.67-12,0-18-.17l-8.27-2.23-1.27-.8a3,3,0,0,0-2-1.78l0-.05c-.47-2.36-.93-4.71-1.4-7.06,0-.49,0-1,0-1.48a3,3,0,0,0-.39-3.05,9,9,0,0,0-.25-4.75c-.05-.37-.1-.75-.14-1.12l0-2.25c.15-5.07.56-10.15.39-15.21-.39-11.57-.7-23.14-.44-34.72.18-7.83.15-15.78,2.73-23.28,1.66-4.83,4.48-8.78,10.48-9.18,2.4-.16,5,.49,7.28-1.08l3-.07H285l3.71,0c4.82.05,9.66.41,14.45.07,5.1-.36,9.56.43,13.15,4.31l1.56,3.37a8.52,8.52,0,0,0,1.05,5.25,4.61,4.61,0,0,0-.29,3c-.88,2-.69,4.27-1,6.42l.24.22-.25-.22c-1.45.25-1.46,1.63-2,2.58l-.67.52-8.19,1.8-6.72.22a2,2,0,0,0-2.18.61l-.2-.11-.19.13c-3.1,0-6.2-.07-9.3-.12-2.62,0-3.82,1.24-4,3.84-.17,3.13.36,6.2.45,9.29.07,2.19.89,2.81,2.91,2.74,2.86-.1,5.73-.15,8.58,0,5.06.31,7.19,2.51,8.11,7.55.39,2.19-.16,4.49.88,6.57,0,1,0,1.95,0,2.92-1.62,1.84-2.14,4.24-3.26,6.32h-.06a1.07,1.07,0,0,0-1.19.55l-2.87.64c-3.34.25-6.67.54-10,.73-2.92.16-3,2.48-3,4.33,0,2.85-.7,6,1.85,8.32.07.07.24,0,.37,0l12.25,0a4.47,4.47,0,0,0,3.89-.26c2.31,1.8,4.9.74,7.39.74l2.42.62a7.62,7.62,0,0,0,3.25,2.53l.1.23a7.4,7.4,0,0,0,1.63,3.73,7.19,7.19,0,0,0,.22,3.71A16.53,16.53,0,0,0,317.91,290.7Z" transform="translate(-149.26 -185.3)"/>
  <path class="cls-1" d="M966.92,267.78q-.61-5.47-1.25-10.94,1.62-1.42-.1-2.71l.36-15.3.56-.23-.57-.23c.67-6.69.77-13.55,3.24-19.86,3.79-9.71,8.06-19.08,18-24.58a39.41,39.41,0,0,1,14.78-4.32l1.58,0a27.13,27.13,0,0,1,19.54,8.61c5.57,5.86,7.38,13.16,5.85,21.07-.69,3.6-4.26,5.09-6.86,7.06a25.57,25.57,0,0,1-7.1,3.22c-3,1-4.53-1.64-6.1-3.19a60.61,60.61,0,0,0-5.84-5c-2.65-2-4.14-1-5.22,1.38a48.92,48.92,0,0,0-4.35,25.77c.49,4.68,0,9.48,1.65,14a57.07,57.07,0,0,0,2.82,6.81c1.27,2.47,3.48,2.54,5.8,1.6,3.62-1.46,7-3.37,9.18-6.72,1.49-2.27,3.15-2.33,5.39-1.09,12,6.58,15.48,19.91,5.5,30.88-12.21,13.42-34.6,13.64-47-3.37-4.49-6.14-7.82-13.1-8.6-20.94A1.82,1.82,0,0,0,966.92,267.78Z" transform="translate(-149.26 -185.3)"/>
  <path class="cls-1" d="M925.31,391.23c0-10.59-.31-21.18.11-31.75.26-6.44,1.51-12.85,2.55-19.24.58-3.55,3.17-6.1,5.34-8.79s5.6-2.35,8.36-2.16c5.9.4,11.61-1.09,17.46-1a62.63,62.63,0,0,1,14.1,1.55c5.74,1.44,8.76,7,8.18,14.27-.69,8.62-4.06,11.83-12.77,12.13-5.1.18-10.2.92-15.3-.05-1.61-.31-2.13.51-2.46,2-.88,3.87,0,7.72-.15,11.58-.08,1.44,1,1.7,2,1.39,2.89-.83,5.83-.37,8.75-.51,4.15-.2,6.79,1.42,7.53,5.48.82,4.51,1.24,9.11-.34,13.64-2,5.63-4,7.19-9.94,7.64-1.86.14-4.36-.65-5.11,2a22.94,22.94,0,0,0-.33,10c.1.64.79.62,1.23.53,3.55-.65,7.12.08,10.72-.38,7-.88,11.21,1.7,14.11,7.91,3.09,6.63,2.12,12.66-2.46,17.46-2.27,2.37-5,1.8-7.62,1.73-11.34-.3-22.67-.83-34-1.17-6.51-.2-6-.26-7.74-6.32-2.57-9.06-1.8-18.29-2.47-27.45-.25-3.48,0-7,0-10.49Z" transform="translate(-149.26 -185.3)"/>
  <path class="cls-1" d="M330.77,328.49C347.38,335.07,355,348.38,358,365a101.89,101.89,0,0,1,1.57,27.59c-1,10.67-3.65,21-12.32,28.36a31.83,31.83,0,0,1-19.58,8c-4,.17-8-.67-11.95.28-1.94-1.43-4.44-1.2-6.53-2.2a.75.75,0,0,0-1-.54l-1.44-.45c-2.49-5-2.79-10.66-3.35-16a417.54,417.54,0,0,1-2.4-54.9c.1-3.59-.45-7.17.27-10.79,1.58-7.95,4.34-14.74,13.63-16.09l2.26-.27a10.07,10.07,0,0,0,5.28-.27l3-.11a7.46,7.46,0,0,0,3.71.45Zm-8.7,38.82c.54,10.45,1,20.13,1.58,29.81.17,2.81.15,6.56,3,7.59s5-2.1,6.85-4.21a13.44,13.44,0,0,0,1.71-2.43c6.39-11.73,3.75-23.39-.58-34.91-1.05-2.79-3.54-4.81-6.35-6.09-3-1.37-4.86-.43-5.38,2.82C322.41,362.59,322.27,365.33,322.07,367.31Z" transform="translate(-149.26 -185.3)"/>
  <path class="cls-1" d="M487.91,240.43a4,4,0,0,0,.49-2.58,1.71,1.71,0,0,0,1-1.92c4.57-13.86,7.31-28.37,14-41.49,1.73-3.4,3.4-8,8.54-7.83,7.12.23,13.52,1.75,16.37,9.9,3.75,10.75,6.48,21.72,9.54,32.64,4.4,15.69,5.92,32,11.08,47.49,1,3.14,1,6.5,2.25,9.63a5.36,5.36,0,0,1-1.38,6.21c-.69,0-1,.49-1.23,1l-1.76.62c-2.57,0-4.9,1.6-7.54,1.18a12.36,12.36,0,0,1-5.56-6.76c-1.9-4.85-4.08-9.6-5.82-14.52-.78-2.22-2-2.74-4.09-2.73-5.86,0-11.72,0-17.56-.31-3-.17-5,.42-5.64,3.63-.35,1.69-.93,3.34-1.4,5a5.92,5.92,0,0,0-1.78,4.33l-1.65,4.5c-1.13.35-2.06.9-2.16,2.25l-3.83,3.65c-2.34,0-4.39,1.55-6.78,1.2-7.33-3.41-7.82-4.46-6.15-12.82a22,22,0,0,0,.21-3.26,5.94,5.94,0,0,0,2-4.54l.18-1.51c.78-1.4,1.67-2.77,1.18-4.51l.25-1.51a2.23,2.23,0,0,0,.59-2.23,9.37,9.37,0,0,0,1.2-4.85,118,118,0,0,0,4.52-16.18c0-.33,0-.66,0-1A3.29,3.29,0,0,0,487.91,240.43Zm26.74-11.56c-.92,2.67-2.36,4.86-3.34,7.25-.85,2.06-1.44,4.23-2.31,6.28s-.74,3.38,1.61,4c1.9.48,8.5-1,8.43-2C518.63,238.94,518,233.55,514.65,228.87Z" transform="translate(-149.26 -185.3)"/>
  <path class="cls-1" d="M746.31,377c0,2,0,4,0,6-2,9-3.3,10.45-11.81,11-3.73.26-4.19,2.31-4.08,5.1.05,1.35.7,2.69.68,4,0,2.15,1,2.29,2.8,2.24a96.64,96.64,0,0,1,15.67.45c7.55,1,9.46,2.55,10.84,10.25q3,16.51-13.42,15.77a2.48,2.48,0,0,0-.38,0c-3.39.52-7-.64-10.23,1.11l-1.73.1c-2.91-1.65-5.79-.24-8.69.07l-1-.08c-4.55-1.43-9.48-.78-14-2.58-2.34-.32-3.35-1.73-3.62-4a422.51,422.51,0,0,1-3.23-59.71c.17-7.74.26-15.48,1.62-23.11,1-5.77,2.63-11.21,7.34-15.5,3-2.7,6.26-2.41,9.44-2.54,8.94-.37,17.9-.15,26.84-.36,5.15-.12,8.35,2.36,9.77,7,1.58,5.18,1.19,16-5.39,19-3.73,1.7-8,1.48-12,2.12-3,.47-6.1.13-9.15.27-1.72.07-3.15.6-3.08,2.81.09,3-.09,6,.2,9,.2,2,.84,4.15,3.79,3C743,367.47,745.14,370.19,746.31,377Z" transform="translate(-149.26 -185.3)"/>
  <path class="cls-1" d="M440.7,188.61C455,187.34,464.64,200.5,466.35,212c.83,5.56-2.55,10.26-9.21,13.33-3.44,1.59-6.48,2.16-9.12-1.62-1.24-1.77-3.26-3-5-4.39a5.83,5.83,0,0,0-9.25,2.87,65.48,65.48,0,0,0,.79,40,12.28,12.28,0,0,0,.8,1.68c3.93,7.31,6.59,7.82,12.93,2.48,5-4.21,7.46-4,12.56-.38,4.69,3.34,7.44,7.12,6.27,13.14a24.48,24.48,0,0,1-10.26,15.7c-16.08,11.74-38.67-.13-45-13.22-5.83-12.08-8-24.76-7.91-38,.06-9.06.86-18.07,3.95-26.52,3.83-10.44,8.6-20.52,19.6-25.71A25.69,25.69,0,0,1,440.7,188.61Z" transform="translate(-149.26 -185.3)"/>
  <path class="cls-1" d="M591.19,272.65c.09,5.49.22,11,.25,16.47,0,4.89-1.75,6.77-6.69,7.63-2.45.43-4.83,1.21-7.24,1.83a9.37,9.37,0,0,1-9-8.4c-1.41-18.23-1.7-36.49-1.8-54.77-.06-11.84,1.16-23.64.55-35.48.16-1.49.33-3,.49-4.46a3,3,0,0,0,.58-2.25,11.15,11.15,0,0,1,6.93-4.72c9.28-1.67,18.64-2.49,27.5,1.67,9.29,4.37,15.55,11.55,19.1,21.33,3.21,8.83,1.73,17.63,1,26.51-1.13,13.26-9.28,21.91-19.13,29.48a.92.92,0,0,0-1.05.6,3,3,0,0,0-2.66,1.32c-1.78.11-3.66-.1-4.89,1.64l-3.37.46C590.67,271.44,590.66,271.91,591.19,272.65Zm11.25-45c1-5.82-1.5-10.49-6.82-13.6-4-2.34-5.82-1.29-6,3.34-.24,7.69-.31,15.38-.44,23.07,0,2.62,1.31,3.39,3.62,2.46C599.46,240.24,602.7,237.81,602.44,227.65Z" transform="translate(-149.26 -185.3)"/>
  <path class="cls-1" d="M501,422.09c-1.29,0-1.85.71-1.77,2l-.66.62a.77.77,0,0,0-.6.24l-3.73,1.8A35.16,35.16,0,0,1,475,429.57a23.14,23.14,0,0,1-13.95-7.22c-6.41-7-10.41-14.89-7.78-24.86.4-1.5,1.46-2.58,1.76-4.05l2.41-1.07a20.4,20.4,0,0,1,8.91,3.49l0-.06a2,2,0,0,0,1.71,2l.11.11c.92,2.77,2.86,4.95,4.72,7s4.8,1.94,7.09.39,2.75-3.67,1.25-6.16a25.22,25.22,0,0,0-8.8-8.44l-.87-.94c0-.91-.71-1.09-1.38-1.3-3.71-4-8.33-7.1-11-12-5.42-10-8.45-20.39-4.18-31.45s14.86-17.08,26.52-16.86c12.65.23,19.78,7.37,24.38,18.15a4.64,4.64,0,0,0,.37,2.91,8,8,0,0,0,.15,3.8,1,1,0,0,0-.29,1.5,12.41,12.41,0,0,1-8.07,8.83c-2.95.75-5.64-.17-8.29-1.31l-.74-.84a1.9,1.9,0,0,0-1.44-1.57l-1.35-1.23a3.68,3.68,0,0,0-1.65-2.37c-1.79-1.38-3.42-3.66-6.12-2-2.14,1.34-2.44,4.93-.77,7.72a14.56,14.56,0,0,0,7.35,6.42l.08-.2-.06.21a4.12,4.12,0,0,0,3.22,2.52.47.47,0,0,0,.52.35,1.77,1.77,0,0,0,1.74,1.3l1.2.95.89,1,.61.54.95.82a4.51,4.51,0,0,0,2.2,2.13,2,2,0,0,0,1.55,1.6l1.4,1.41c3.18,3.21,6.74,6.13,8,10.8.62,2.38,1.32,4.74,2,7.11l.06,1.54c-.31,3.07-.51,6.15-.95,9.19-.66,4.61-4.26,7.69-6.23,11.63Z" transform="translate(-149.26 -185.3)"/>
  <path class="cls-1" d="M609,390.06c-5.16,6.66-12.49,10-20.11,12.64-2.24.79-2.73,1.85-2.79,4-.15,5.74,1.13,11.42.43,17.19-.31,2.58-1.39,3.6-3.89,4.61-4.67,1.87-9.35,1-14,1.13a3.71,3.71,0,0,1-3.83-3.82c-.79-15.69-1.79-31.37-2.34-47.07-.43-12.09-.35-24.2-.38-36.31,0-1.92-1.5-3.51-.48-5.72a16.35,16.35,0,0,1,10.76-9.25,7.28,7.28,0,0,0,3.56.13c2.46.46,5,1.2,7.16-.77,16.08.88,24.06,7.68,29.7,22.64a44.59,44.59,0,0,1-1.44,36.08,6.19,6.19,0,0,0-.28,1.46c-.57.21-1.1.45-1,1.2Zm-23.77-26h0c0,1.63,0,3.25,0,4.88s-.12,3.85,1.77,4.57,2.86-1.08,4-2.22a13.77,13.77,0,0,0,1.3-1.35c3.81-4.85,2.94-10.32-2-12.93-4-2.1-4.82-1.64-5,2.93C585.17,361.34,585.23,362.72,585.23,364.09Z" transform="translate(-149.26 -185.3)"/>
  <path class="cls-1" d="M857.24,188.74c15.08-3.14,30.34-.45,45.47-1.44,4-.26,7.49,1,11,2.27,3,1.09,3,4.28,4.22,6.58,4.27,7.95-.53,16.26-9.4,16.26-2.74,0-5.39.74-8.18.59-2.3-.13-2.81,1.8-2.78,4q.18,15.17.16,30.33c0,6.8-.36,13.61-.22,20.41.15,7.05.83,14.1,1,21.15.17,5.88-1.64,7.68-7.47,8.57-3.86.59-7.68.23-11.52,0-3.1-.18-4.79-1.84-5.25-4.84-.75-4.9-1.24-9.86-2.27-14.7-2.46-11.6-1.4-23.32-1.5-35-.05-6,0-12,.32-18,.15-3.11.89-6.19,1.33-9.28.3-2.18.23-3.75-2.84-3.9s-6.42-.16-9.52-1.61c-4.62-2.17-7.05-5.57-7.13-10.6-.05-3.23,1.32-6.55-1-9.69-.73-1,1.14-.74,1.77-1.12C854.73,191.27,856,190.36,857.24,188.74Z" transform="translate(-149.26 -185.3)"/>
  <path class="cls-1" d="M638.17,276.49c-.09-1.25-.17-2.5-.26-3.75-.19-1.74-.37-3.49-.55-5.23,0-.52-.05-1.05-.08-1.57l0-.69c0-3.52,0-7,.07-10.56a3.37,3.37,0,0,0-.13-2.94c-.58-13.57.2-27.11,1.21-40.64.29-3.82.86-7.7.49-11.48-.67-7,6.68-13.27,13.6-10.9.25.33.49.52.69,0a10.64,10.64,0,0,1,8.87,3.76l.63,1.33c1.55,14.95-.51,30,.56,44.91.65,9.14-.58,18.23-.22,27.36.19,4.92.23,5.12,5,5.09,4.44,0,8.87-.61,13.26.94,5,1.78,9.29,8,8.56,13.28-.51,3.72,0,7.83-4.14,10.22-2.72,1.55-5.75,1.7-8.58,1.89-10.55.69-21.09-.54-31.65-.62-2.72,0-4.16-1.17-4.79-3.7-.39-1.56-.88-3.1-1.32-4.66-.12-1.71.29-3.5-.84-5.05-.06-.31-.13-.63-.19-.95a.9.9,0,0,0,0-1.55c0-.48.06-1,.08-1.44A4.4,4.4,0,0,0,638.17,276.49Z" transform="translate(-149.26 -185.3)"/>
  <path class="cls-1" d="M953.73,289.88c-.23.9-.45,1.81-.67,2.72a1.71,1.71,0,0,0-1.2,1.87c-2.85,4.9-7.7,5.9-12.75,6.49-6,.7-8.37-3.52-9.18-9.81-1.3-10.1-1.59-20.31-2.27-30.48-1.16-17.71-.29-35.36.68-53a24.62,24.62,0,0,1,3.36-12.15c2.75-4.41,6.72-5.4,11-5.21,3.86.17,8.68,6.45,9.31,10.69,1.42,9.52,1.21,19.09,1.17,28.68,0,5.58-.24,11.19.51,16.76-.52,1.09,0,2,.38,3l0,2.27c0,.25,0,.49,0,.74l0,18.78a2.52,2.52,0,0,0,.41,2.68l-.45,14.55c-.05.24-.1.47-.14.71v0C953.86,289.4,953.8,289.64,953.73,289.88Z" transform="translate(-149.26 -185.3)"/>
  <g>
    <path class="cls-1" d="M851.7,342.55l.12-1.64a4.6,4.6,0,0,0,.45-3c.19-1.22.37-2.44.57-3.65,1-5.94,2.84-7.44,8.76-7.12,7.9.42,15.79,0,23.68-.25,1.79,1.31,3.74,1,5.71.61l2.25-.09a2.85,2.85,0,0,0,2.27.07,2.31,2.31,0,0,0,2.93.18,5.17,5.17,0,0,0,4.27-.73l.27.18.26-.17a3.48,3.48,0,0,0,3.51.49c5.79,3.22,9,7.62,8.66,14.77s-6.2,11.91-12.58,12.39c-5.25.39-5.43.44-5.11,5.83.91,15.54-.4,31.1.84,46.62a156.33,156.33,0,0,1,.24,17.18c-.14,4.9-3.43,10.4-6.49,10-3.87-.48-7.6.54-11.46,0-6.06-.79-7.83-2-8.78-8a58.2,58.2,0,0,1-.76-7.79c-.28-15.33-.88-30.66-.53-46a103.13,103.13,0,0,1,1-12.29c.77-5.28.47-5.69-4.94-6.26-1.12-.12-2.26-.08-3.36-.29-5.58-1.08-10.23-3.3-11.38-9.63A1.09,1.09,0,0,0,851.7,342.55Z" transform="translate(-149.26 -185.3)"/>
    <path class="cls-1" d="M891,327.52c-2,.42-3.92.7-5.71-.61C887.21,326.82,889.22,326.07,891,327.52Z" transform="translate(-149.26 -185.3)"/>
    <path class="cls-1" d="M902.71,327a5.17,5.17,0,0,1-4.27.73C899.62,326,901.23,326.86,902.71,327Z" transform="translate(-149.26 -185.3)"/>
    <path class="cls-1" d="M906.75,327.45a3.48,3.48,0,0,1-3.51-.49C904.46,326.75,905.72,326.27,906.75,327.45Z" transform="translate(-149.26 -185.3)"/>
    <path class="cls-1" d="M895.51,327.5a2.85,2.85,0,0,1-2.27-.07C894,326.55,894.78,326.51,895.51,327.5Z" transform="translate(-149.26 -185.3)"/>
  </g>
  <path class="cls-2" d="M380.09,198.83l-.83-1Z" transform="translate(-149.26 -185.3)"/>
  <path class="cls-2" d="M953.73,289.88c.07-.24.13-.48.2-.72C953.86,289.4,953.8,289.64,953.73,289.88Z" transform="translate(-149.26 -185.3)"/>
  <path class="cls-2" d="M365.36,285.08l.83,1.06Z" transform="translate(-149.26 -185.3)"/>
  <path class="cls-2" d="M238.45,429.4c3.35-3.8,4.14-8.23,3.7-13.18a32.87,32.87,0,0,1,1.56-14,7,7,0,0,1,1.32-2.62c1.19-1.17,2.32-3,4.35-2.22,1.74.7,1.09,2.57,1.23,4,.81,8.5-1.89,16.88-.92,25.39.3,2.59.7,5.18.83,7.78.22,4.56-1.85,7.31-6.33,8a121.6,121.6,0,0,1-15.2,1.57c-10.47.2-20.87,1.07-31.28,2.11-2.39.24-3.52-1.12-3.75-3.57-.8-8.49,0-16.91,1.07-25.3a132.52,132.52,0,0,0,.82-13.79c.07-3.67,2.06-6.22,4.88-6.42,3.63-.25,6.06,1.51,6.26,5.61.31,6.2,0,12.44-.07,18.65,0,2.16.27,4.17,1.83,5.8-1.5,0-3,.08-4.49.05a2.33,2.33,0,0,1-2.52-2.23c-.15-1,.4-2.79-1.19-2.6a4.63,4.63,0,0,0-3.33,2.58c-2.05,3.77-1.89,7.63-1.57,11.71.38,5,.63,5.59,5.7,5.56,12.15-.09,24.26.09,36.41-1.32,8.81-1,12.13-4.3,9.91-12.71-.35-1.31-.31-2.85-2.13-3.1-1.52-.21-2,1.06-2.94,1.88C241.43,428,241.06,430.73,238.45,429.4Z" transform="translate(-149.26 -185.3)"/>
  <path class="cls-2" d="M238.45,429.4c2.61,1.33,3-1.39,4.15-2.44.92-.82,1.42-2.09,2.94-1.88,1.82.25,1.78,1.79,2.13,3.1,2.22,8.41-1.1,11.69-9.91,12.71-12.15,1.41-24.26,1.23-36.41,1.32-5.07,0-5.32-.54-5.7-5.56-.32-4.08-.48-7.94,1.57-11.71a4.63,4.63,0,0,1,3.33-2.58c1.59-.19,1,1.61,1.19,2.6a2.33,2.33,0,0,0,2.52,2.23c1.49,0,3,0,4.49-.05l2,.93c.38,1.48,1.11,1.76,2.25.66l2.25.18c1,2,2.35,1.6,3.78.5a3.86,3.86,0,0,1,2.93.43c1.31,3.18,3,.76,4.57.32l8.2,0c.64.94,1.15.79,1.56-.19A2.74,2.74,0,0,1,238.45,429.4Z" transform="translate(-149.26 -185.3)"/>
  <path class="cls-2" d="M226.5,430.16c-1.56.44-3.26,2.86-4.57-.32C223.47,429.66,225,429.06,226.5,430.16Z" transform="translate(-149.26 -185.3)"/>
  <path class="cls-2" d="M219,429.41c-1.43,1.1-2.77,1.51-3.78-.5A3.72,3.72,0,0,1,219,429.41Z" transform="translate(-149.26 -185.3)"/>
  <path class="cls-2" d="M213,428.73c-1.14,1.1-1.87.82-2.25-.66A1.78,1.78,0,0,1,213,428.73Z" transform="translate(-149.26 -185.3)"/>
  <path class="cls-2" d="M236.26,429.93c-.41,1-.92,1.13-1.56.19A1,1,0,0,1,236.26,429.93Z" transform="translate(-149.26 -185.3)"/>
  <path class="cls-2" d="M1067.42,498.14c2.06,3,1.81,3.77-1.49,4.8l0-2.22a1.44,1.44,0,0,0,1.21-1.83Z" transform="translate(-149.26 -185.3)"/>
  <path class="cls-2" d="M1067.11,498.89a1.44,1.44,0,0,1-1.21,1.83C1065.6,499.65,1066.22,499.18,1067.11,498.89Z" transform="translate(-149.26 -185.3)"/>
  <path class="cls-2" d="M1067.38,497.06l.55.27-.49.64C1067.41,497.67,1067.4,497.37,1067.38,497.06Z" transform="translate(-149.26 -185.3)"/>
  <path class="cls-2" d="M1073.89,484.76c-.23-.45-.51-.74-.47-1s.4-.43.62-.63c.17.25.48.5.48.75S1074.19,484.38,1073.89,484.76Z" transform="translate(-149.26 -185.3)"/>
  <path class="cls-1" d="M1215.39,463.38c2.6,11.26,2.93,22.72,2.21,34.13a160.51,160.51,0,0,1-3.74,27.69c-2.52,10.35-4.17,21.21-9.86,30.47a56.55,56.55,0,0,1-23.24,21.62c-14.18,7.1-29,8.31-44.36,7.2-8.32-.6-16.63-1.19-24.92-2-8.6-.89-16.78-3.67-24.79-6.67-13.28-5-21.16-14.95-25.82-28.24-3.88-11.06-8.64-21.83-9.81-33.61-.84-8.51-2-17.16.69-25.58,1.23-3.86,3-7.55,4.59-11.3a37.8,37.8,0,0,0,2.9-9.21,3,3,0,0,0,.59-2.34c.82-.85,1.52-1.74,1.21-3A10.55,10.55,0,0,0,1062,458c0-.25,0-.49,0-.74,1.71-6.35,3.65-12.79,3.66-19.32a63.56,63.56,0,0,1,2-17c2-7.2,3.18-14.56,5.1-21.76,2.31-8.67,8.11-13.92,15.42-18.09,2.47.1,4.52-1.2,6.73-2a4.49,4.49,0,0,0,3-.38,2.92,2.92,0,0,0,2.32,0l5.14.62a7.23,7.23,0,0,0,4.53,1.22l1.1.39,1.21.79c9.62,5.46,13.47,14.23,14.12,24.79.38,6.1.77,12.2,1,18.31.06,2,.92,2.46,2.62,2.85,3.84.88,7.41-.05,11-1.16,1.62-.49,1.4-1.83,1.57-3,1.24-9.2,0-18.43.37-27.64.34-8.83.4-17.67,3.69-26.1,1.81-4.63,6.08-6.72,9.51-9.66,1.18-1,2.88.16,4.34.31,16.68,1.68,29.62,10,39.8,22.85a28,28,0,0,1,6.36,14.18,32.53,32.53,0,0,0,.84,3.61l.08.74a4.29,4.29,0,0,0,.52,3,1.18,1.18,0,0,0,.33,1.49,4.94,4.94,0,0,0,.35,3,1.57,1.57,0,0,0,.73,2.05c0,1.32-.56,2.65.07,3.95a1.19,1.19,0,0,0,.33,1.5l.15,1.51c0,.52.06,1,.1,1.55v1.45c-.18,2.47-.55,5,1,7.23a3.84,3.84,0,0,0-.08,2.79,1.9,1.9,0,0,0-.26,2.7l.33,15.37c-1.32,1-1.13,2.15-.41,3.37l.3,1.54a1.75,1.75,0,0,0,.8,2c0,.33.07.66.1,1-.18.79.23,1.22.92,1.47Zm-112.15-53.46c-.15-.89-.61-1.29-1.52-.95a6.09,6.09,0,0,0-5.21.77c-.87-.08-1.7-.07-2,1-1,1.7-3.24,2.72-2.64,5.2a1.27,1.27,0,0,0-.36,1.54c-.89,2.63-.13,5.35-.47,8-1,.52-1.44,1.56-.17,1.75,2.64.39,5.45,1.53,8-.4l.2-.21.24.15c2.87.06,3.39-2.08,3.65-4.17.31-2.55.3-5.14.43-7.7,1.2-1.7,1.76-3.37-.17-5Zm-36.13,89c-.89.29-1.51.76-1.21,1.83l0,2.22a9.4,9.4,0,0,0-1,4.33c-.35,7.4,1,14.57,2.54,21.77.74,3.42,3.62,5.88,3.88,9.19.53,6.85,4.26,11.73,8.69,16.43,6.36,6.77,14.72,9.62,23.16,12.53,10.47,3.61,21.36,4.61,32.24,4.86,12.51.29,24.52-2,35.92-8a48.65,48.65,0,0,0,22.89-24.92c4.68-11.08,6.92-22.75,9.11-34.46a13.19,13.19,0,0,0,.72-6c1-1.45.8-3,.43-4.6a2.44,2.44,0,0,0,.29-2.16,1,1,0,0,0,0-1.71c.62-5.62-.16-11.2-1.12-16.67-1.78-10.13-2.53-10.68-12.64-10.2-9,.43-17.62-.4-25-6.21l-1-1.15-.47-1.64a4.9,4.9,0,0,0-1-4.3l0-2.41c1-1.54.31-3.09,0-4.64v-1.36c-.35-10.82-.79-21.64-1-32.47-.21-10-1-20.21,9-26.83,1.26-.82,1.49-2.53-.56-3.09-3-.82-5.63-2.5-8.41-3.86-5.07-2.47-7-1.38-7.8,4.29-1.91,14.19.75,28.55-1.59,42.73-.64,3.87.29,7.9-1,11.74l-.1.09c-2,.3-1.68,2.74-3.18,3.53a13.25,13.25,0,0,1-3,1.38c-8.07,1.4-16.16,2.9-24.36,3-10.13.12-20.36,1.92-30.33-1.91-5.62-2.15-7.74-5.43-6.07-11.3.3-1.05.44-1.61-.63-2a3.77,3.77,0,0,0-4.9,3.75,101.75,101.75,0,0,1,.53,18.94c-.42,6-2.12,12-3.26,18-.79.32-.95,1.05-1.16,1.77-2.39,8.41-4.52,16.91-8.06,24.95a3.39,3.39,0,0,0-.25,2.85c0,.31,0,.61,0,.91v.17ZM1184,428.3c0-.56.08-2.19,0-3.8-.23-3.9-2.38-6.43-5.87-7.95-2.38-1-3.78-.53-4,2.34a169.55,169.55,0,0,0,1.15,26.85c.22,2.11,1.76,2.84,3.72,2.95,1.75.11,2.94-.52,3.23-2.34C1183.19,440.72,1185.16,435.2,1184,428.3Z" transform="translate(-149.26 -185.3)"/>
  <path class="cls-2" d="M1112.24,381.67l-1.21-.79Z" transform="translate(-149.26 -185.3)"/>
  <path class="cls-2" d="M1204.54,494c.37,1.58.57,3.15-.44,4.6l-1.67-1.42c-.22,1.88-.32,3.57-.65,5.21-.3,1.47.38,2,1.61,2.25-2.19,11.71-4.43,23.38-9.11,34.46A48.65,48.65,0,0,1,1171.39,564c-11.4,6.09-23.41,8.34-35.92,8-10.88-.25-21.77-1.25-32.24-4.86-8.44-2.91-16.8-5.76-23.16-12.53-4.43-4.7-8.16-9.58-8.69-16.43-.26-3.31-3.14-5.77-3.88-9.19-1.56-7.2-2.89-14.37-2.54-21.77a9.4,9.4,0,0,1,1-4.33c3.3-1,3.55-1.82,1.49-4.8a1,1,0,0,1,0-.17l.49-.64-.55-.27a3.39,3.39,0,0,1,.25-2.85c3.54-8,5.67-16.54,8.06-24.95.21-.72.37-1.45,1.16-1.77.76,1.86-1.14,3.91.39,5.72,1.21,1.43,1.33,2.49-.13,4.12-2,2.27-1,4,2,5,2,.66,3.65-.63,5.49-.36-1.37,2.75-4.53,4.59-4.17,8.23a1.39,1.39,0,0,1-1.11-1.33c.09-2.19-1.49-2.62-3.09-3-1.76-.47-2.37.95-3.21,2-.7.86-1.43,1.7-2.12,2.57a3.44,3.44,0,0,0-.38,3.52c1.41-.79,3-.09,4.36-.49,1-.31.56-1.69-.16-2.52s-.91-1.72,0-2.26c1.66-1,1.15,1,1.77,1.42,1.27.88,2.28,4.1,4.31.75,1.55,2.46,3.8,2.23,6.38,2.26,4.89,0,9.34-2.64,14.2-2a29.71,29.71,0,0,1,16.48,8c1.91,1.78,4.34,1.72,6.64,1.45,1.89-.21,1.16-2.17,1.58-3.37,1.71-1.83,2-3.32-1-4a.42.42,0,0,1-.4-.13c2.13-1.68,6.56-1.27,5.44-6,0-.19.44-.67.75-.76,2-.57,3.7-1.28,4.82-3.33.42-.76,2.53-.57,2.9.5.86,2.48,3.7,3.08,4.59,5.39-.34.8-.66,1.6-1,2.39-1,2.43-1.53,4.86.68,6.9s4.08.71,6.3-.58c5.5-3.22,11.34-5.56,18-4.21a47.43,47.43,0,0,1,11.53,4.26c3.95,1.95,7,.34,8.12-3.84a25.71,25.71,0,0,0,.72-7.4c2.36,1.87,1.13,4.27.9,6.48-.13,1.24-.9,2.5.46,3.7,1.66-2.88,1-6.23,2.72-8.94,1.29.76.86,1.86.86,2.76,0,4.51,0,4.42,4.14,2.73,2.27-.91,1.93-2.57,1.7-4.31-.09-.69-1.37-1.48-.61-1.87,3-1.5,1-1.74-.32-2.79a3.3,3.3,0,0,1-.81-3.77.88.88,0,0,1,1.27-.4c1.51,1,3.73,1.87,3.29,4-.6,2.95,1.37,5.34,1.13,8.14C1202.11,493.69,1203.33,494,1204.54,494Zm-98.28,41c-1.17-.68-2.4-1.27-3.49-2-2.55-1.84-4.69-1.25-6.48,1-2.12,2.73-1.35,5.46.57,7.83,3.12,3.86,7.46,6.29,11.86,8.15a57.52,57.52,0,0,0,35.48,3.07,40.78,40.78,0,0,0,18.24-8.64,12.77,12.77,0,0,0,4.17-8.44c.27-2,0-3.8-2-4.8s-3.5.08-5,1.39c-13.53,11.89-28.58,14.64-45.24,7.37.08-.85,2.39-1.44.31-2.54-2.27-1.21-4.52-2.47-6.85-3.55C1107.05,533.49,1106.49,534.22,1106.26,535Zm71-35.91c1.67,1.94,3.72,2.67,6.21,1.46C1181.43,500,1179.38,499.57,1177.25,499.11Zm9.7-1.05a2,2,0,0,0-1.7,1.18.87.87,0,0,0,.86,1.26c.86,0,1.23-.71,1.46-1.42C1187.73,498.57,1187.65,498.11,1187,498.06Zm-113.06-13.3c.3-.38.63-.62.63-.86s-.31-.5-.48-.75c-.22.2-.58.39-.62.63S1073.66,484.31,1073.89,484.76Z" transform="translate(-149.26 -185.3)"/>
  <path class="cls-2" d="M1204.54,494c-1.21,0-2.43-.29-2.3-1.78.24-2.8-1.73-5.19-1.13-8.14.44-2.15-1.78-3-3.29-4a.88.88,0,0,0-1.27.4,3.3,3.3,0,0,0,.81,3.77c1.29,1.05,3.29,1.29.32,2.79-.76.39.52,1.18.61,1.87.23,1.74.57,3.4-1.7,4.31-4.17,1.69-4.11,1.78-4.14-2.73,0-.9.43-2-.86-2.76-1.68,2.71-1.06,6.06-2.72,8.94-1.36-1.2-.59-2.46-.46-3.7.23-2.21,1.46-4.61-.9-6.48-.58-2-2.68-2.24-4-3.37a8.3,8.3,0,0,0-6.73-2l-1.5-.44c-.37-.82-.84-1.1-1.51-.28a2.75,2.75,0,0,1-2.25-.35c-.28-.81-.69-1.25-1.48-.47l-1.53-.19c-1-1.73-2.31-1.35-3.7-.61l-1.55-.33c-4.67-2.39-9.57-1-14.29,4a4.24,4.24,0,0,1-2.1,1.84c-.92.26-2.67-1.4-2.62.17,0,1.74-1.55,2.82-1.09,4.45l0,0c-.89-2.31-3.73-2.91-4.59-5.39-.37-1.07-2.48-1.26-2.9-.5-1.12,2-2.84,2.76-4.82,3.33-.31.09-.79.57-.75.76,1.12,4.69-3.31,4.28-5.44,6-2.65-4.09-5.45-8.07-9.53-10.91l-.9-.87-1.22-.58c-2.35-2.45-5.59-2.78-8.58-2.9-5.44-.24-11-1.11-16.25,1.33l-3.61,2.85c-1.84-.27-3.5,1-5.49.36-3-1-4-2.77-2-5,1.46-1.63,1.34-2.69.13-4.12-1.53-1.81.37-3.86-.39-5.72,1.14-6,2.84-11.95,3.26-18a101.75,101.75,0,0,0-.53-18.94,3.77,3.77,0,0,1,4.9-3.75c1.07.4.93,1,.63,2-1.67,5.87.45,9.15,6.07,11.3,10,3.83,20.2,2,30.33,1.91,8.2-.09,16.29-1.59,24.36-3a13.25,13.25,0,0,0,3-1.38c2.61.22,2.9-1.66,3.18-3.53l.1-.09c2-1,4.45,0,6.43-1.94,1.05-1,1.91.76,1.46,1.87-1.51,3.81.88,5.69,3.45,7.56v1.36c-1.54,1.54-.83,3.09,0,4.64,0,.8,0,1.61,0,2.41-.13,1.54-1,3.25,1,4.3.16.54.31,1.09.47,1.64a1.22,1.22,0,0,0,1,1.15c7.43,5.81,16,6.64,25,6.21,10.11-.48,10.86.07,12.64,10.2,1,5.47,1.74,11.05,1.12,16.67-1,.58-1,1.15,0,1.71A2.44,2.44,0,0,1,1204.54,494Zm-3.79-16.56c-.15-.29-.26-.48-.36-.67a3.74,3.74,0,0,0-.34.87c0,.17.17.37.27.57C1200.47,477.91,1200.62,477.64,1200.75,477.42Zm-74.66,12a3,3,0,0,0-.48-.34s-.25.16-.24.19a3.35,3.35,0,0,0,.28.53Z" transform="translate(-149.26 -185.3)"/>
  <path class="cls-2" d="M1163.49,441.53c-2.57-1.87-5-3.75-3.45-7.56.45-1.11-.41-2.9-1.46-1.87-2,1.95-4.43.95-6.43,1.94,1.27-3.84.34-7.87,1-11.74,2.34-14.18-.32-28.54,1.59-42.73.76-5.67,2.73-6.76,7.8-4.29,2.78,1.36,5.38,3,8.41,3.86,2,.56,1.82,2.27.56,3.09-10.07,6.62-9.23,16.86-9,26.83C1162.7,419.89,1163.14,430.71,1163.49,441.53Z" transform="translate(-149.26 -185.3)"/>
  <path class="cls-2" d="M1184,428.3c1.14,6.9-.83,12.42-1.73,18.05-.29,1.82-1.48,2.45-3.23,2.34-2-.11-3.5-.84-3.72-2.95a169.55,169.55,0,0,1-1.15-26.85c.17-2.87,1.57-3.37,4-2.34,3.49,1.52,5.64,4.05,5.87,7.95C1184.1,426.11,1184,427.74,1184,428.3Z" transform="translate(-149.26 -185.3)"/>
  <path class="cls-2" d="M1091.07,425.49c.34-2.66-.42-5.38.47-8,1-.31,1.35-.77.36-1.55-.6-2.48,1.68-3.5,2.64-5.2.83,0,1.64,0,2-1a6.09,6.09,0,0,1,5.21-.77,1.33,1.33,0,0,0,1.52.95l0,0c0,1.65.11,3.3.17,5-.13,2.56-.12,5.15-.43,7.7-.26,2.09-.78,4.23-3.65,4.16,1.23-3.52-3.58-3.76-3.7-6.62a2.44,2.44,0,0,0-1.32,1.35c-.29,1.19-.46,2.41-.84,3.58C1093,426.6,1092.1,426.62,1091.07,425.49Zm4-7.57c.73-1.51,2-2.63,1.55-4.5,0-.13-.52-.3-.63-.22-1.48,1.06-1.43,2.66-1.43,4.24C1094.56,417.52,1094.72,417.6,1095.07,417.92Z" transform="translate(-149.26 -185.3)"/>
  <path class="cls-2" d="M1091.07,425.49c1,1.13,1.93,1.11,2.43-.41.38-1.17.55-2.39.84-3.58a2.44,2.44,0,0,1,1.32-1.35c.12,2.86,4.93,3.1,3.7,6.62l-.24-.14-.46-.23.26.44c-2.57,1.93-5.38.79-8,.4C1089.63,427.05,1090.09,426,1091.07,425.49Z" transform="translate(-149.26 -185.3)"/>
  <path class="cls-2" d="M1203.39,504.62c-1.23-.25-1.91-.78-1.61-2.25.33-1.64.43-3.33.65-5.21l1.67,1.42A13.06,13.06,0,0,1,1203.39,504.62Z" transform="translate(-149.26 -185.3)"/>
  <path class="cls-2" d="M1103.44,414.91c-.06-1.65-.12-3.3-.17-5C1105.2,411.54,1104.64,413.21,1103.44,414.91Z" transform="translate(-149.26 -185.3)"/>
  <path class="cls-2" d="M1152.05,434.13c-.28,1.87-.57,3.75-3.18,3.53C1150.37,436.87,1150,434.43,1152.05,434.13Z" transform="translate(-149.26 -185.3)"/>
  <path class="cls-2" d="M1163.46,447.53c-.8-1.55-1.51-3.1,0-4.64C1163.77,444.44,1164.46,446,1163.46,447.53Z" transform="translate(-149.26 -185.3)"/>
  <path class="cls-2" d="M1164.49,454.24c-2-1.05-1.11-2.76-1-4.3A4.9,4.9,0,0,1,1164.49,454.24Z" transform="translate(-149.26 -185.3)"/>
  <path class="cls-2" d="M1096.51,409.74c-.33,1-1.14,1-2,1C1094.81,409.67,1095.64,409.66,1096.51,409.74Z" transform="translate(-149.26 -185.3)"/>
  <path class="cls-2" d="M1204.83,491.82c-1-.56-1-1.13,0-1.71A1,1,0,0,1,1204.83,491.82Z" transform="translate(-149.26 -185.3)"/>
  <path class="cls-2" d="M1091.9,415.94c1,.78.65,1.24-.36,1.55A1.28,1.28,0,0,1,1091.9,415.94Z" transform="translate(-149.26 -185.3)"/>
  <path class="cls-2" d="M1103.24,409.92a1.33,1.33,0,0,1-1.52-.95C1102.63,408.63,1103.09,409,1103.24,409.92Z" transform="translate(-149.26 -185.3)"/>
  <path class="cls-2" d="M1166,457a1.22,1.22,0,0,1-1-1.15Z" transform="translate(-149.26 -185.3)"/>
  <path class="cls-1" d="M1114.39,540c16.66,7.27,31.71,4.52,45.24-7.37,1.48-1.31,2.95-2.42,5-1.39s2.27,2.83,2,4.8a12.77,12.77,0,0,1-4.17,8.44,40.78,40.78,0,0,1-18.24,8.64,57.52,57.52,0,0,1-35.48-3.07c-4.4-1.86-8.74-4.29-11.86-8.15-1.92-2.37-2.69-5.1-.57-7.83,1.79-2.3,3.93-2.89,6.48-1,1.09.78,2.32,1.37,3.49,2Z" transform="translate(-149.26 -185.3)"/>
  <path class="cls-1" d="M1183.5,483.08c1.33,1.13,3.43,1.35,4,3.37a25.71,25.71,0,0,1-.72,7.4c-1.09,4.18-4.17,5.79-8.12,3.84a47.43,47.43,0,0,0-11.53-4.26c-6.65-1.35-12.49,1-18,4.21-2.22,1.29-4,2.66-6.3.58s-1.72-4.47-.68-6.9c.34-.79.66-1.59,1-2.39l0,0c1.82-1.07,2.7-2.9,3.71-4.62a4.24,4.24,0,0,0,2.1-1.84c4.75-1.36,8.87-5,14.29-4l1.55.33c1.07,1.2,2.35,1.12,3.7.61l1.53.19a1.18,1.18,0,0,0,1.48.47,2.75,2.75,0,0,0,2.25.35,1.15,1.15,0,0,0,1.51.28l1.5.44C1178.92,482.08,1181,483.46,1183.5,483.08Z" transform="translate(-149.26 -185.3)"/>
  <path class="cls-1" d="M1113,480.73l1.22.58.9.87c4.08,2.84,6.88,6.82,9.53,10.91a.43.43,0,0,0,.41.13c-.27,1.47.42,2.72,1,4-.42,1.2.31,3.16-1.58,3.37-2.3.27-4.73.33-6.64-1.45a29.71,29.71,0,0,0-16.48-8c-4.86-.68-9.31,2-14.2,2-2.58,0-4.83.2-6.38-2.26a.71.71,0,0,0-.37-.61c-.36-3.64,2.8-5.48,4.17-8.23l3.61-2.85a8.3,8.3,0,0,0,4.4.39A40.57,40.57,0,0,1,1113,480.73Z" transform="translate(-149.26 -185.3)"/>
  <path class="cls-2" d="M1080.41,490.24a.71.71,0,0,1,.37.61c-2,3.35-3,.13-4.31-.75-.62-.42-.11-2.42-1.77-1.42-.91.54-.67,1.5,0,2.26s1.18,2.21.16,2.52c-1.33.4-2.95-.3-4.36.49a3.44,3.44,0,0,1,.38-3.52c.69-.87,1.42-1.71,2.12-2.57.84-1,1.45-2.46,3.21-2,1.6.42,3.18.85,3.09,3A1.39,1.39,0,0,0,1080.41,490.24Z" transform="translate(-149.26 -185.3)"/>
  <path class="cls-2" d="M1114.39,540l-8.13-4.93c.23-.8.79-1.53,1.59-1.16,2.33,1.08,4.58,2.34,6.85,3.55C1116.78,538.51,1114.47,539.1,1114.39,540Z" transform="translate(-149.26 -185.3)"/>
  <path class="cls-2" d="M1177.25,499.11c2.13.46,4.18.89,6.21,1.46C1181,501.78,1178.92,501.05,1177.25,499.11Z" transform="translate(-149.26 -185.3)"/>
  <path class="cls-2" d="M1187,498.06c.69.05.77.51.61,1-.23.71-.6,1.43-1.46,1.42a.87.87,0,0,1-.86-1.26A2,2,0,0,1,1187,498.06Z" transform="translate(-149.26 -185.3)"/>
  <path class="cls-2" d="M1126.06,497.21c-.56-1.27-1.25-2.52-1-4C1128.07,493.89,1127.77,495.38,1126.06,497.21Z" transform="translate(-149.26 -185.3)"/>
  <path class="cls-2" d="M1113,480.73a40.57,40.57,0,0,0-20.43-1.18,8.3,8.3,0,0,1-4.4-.39c5.25-2.44,10.81-1.57,16.25-1.33C1107.43,478,1110.67,478.28,1113,480.73Z" transform="translate(-149.26 -185.3)"/>
  <path class="cls-2" d="M1163.25,478.43c-5.42-1-9.54,2.65-14.29,4C1153.68,477.42,1158.58,476,1163.25,478.43Z" transform="translate(-149.26 -185.3)"/>
  <path class="cls-2" d="M1146.86,484.28c-1,1.72-1.89,3.55-3.71,4.62-.46-1.63,1.14-2.71,1.09-4.45C1144.19,482.88,1145.94,484.54,1146.86,484.28Z" transform="translate(-149.26 -185.3)"/>
  <path class="cls-2" d="M1183.5,483.08c-2.55.38-4.58-1-6.73-2A8.3,8.3,0,0,1,1183.5,483.08Z" transform="translate(-149.26 -185.3)"/>
  <path class="cls-2" d="M1168.5,479.37c-1.35.51-2.63.59-3.7-.61C1166.19,478,1167.52,477.64,1168.5,479.37Z" transform="translate(-149.26 -185.3)"/>
  <path class="cls-2" d="M1200.75,477.42c-.13.22-.28.49-.43.77-.1-.2-.3-.4-.27-.57a3.74,3.74,0,0,1,.34-.87C1200.49,476.94,1200.6,477.13,1200.75,477.42Z" transform="translate(-149.26 -185.3)"/>
  <path class="cls-2" d="M1175.27,480.66a1.15,1.15,0,0,1-1.51-.28C1174.43,479.56,1174.9,479.84,1175.27,480.66Z" transform="translate(-149.26 -185.3)"/>
  <path class="cls-2" d="M1126.09,489.42l-.44.38a3.35,3.35,0,0,1-.28-.53s.2-.21.24-.19A3,3,0,0,1,1126.09,489.42Z" transform="translate(-149.26 -185.3)"/>
  <path class="cls-2" d="M1171.51,480a1.18,1.18,0,0,1-1.48-.47C1170.82,478.78,1171.23,479.22,1171.51,480Z" transform="translate(-149.26 -185.3)"/>
  <path class="cls-2" d="M1115.14,482.18l-.9-.87Z" transform="translate(-149.26 -185.3)"/>
  <path class="cls-2" d="M1095.07,417.92c-.35-.32-.51-.4-.51-.48,0-1.58,0-3.18,1.43-4.24.11-.08.6.09.63.22C1097.11,415.29,1095.8,416.41,1095.07,417.92Z" transform="translate(-149.26 -185.3)"/>
  <path class="cls-2" d="M1098.92,426.84l-.26-.44.46.23Z" transform="translate(-149.26 -185.3)"/>
  <g>
    <path class="cls-2" d="M246.8,522.79c-17.73,7.27-33.74,4.52-48.14-7.37-1.58-1.31-3.13-2.42-5.3-1.4s-2.42,2.84-2.13,4.81a12.47,12.47,0,0,0,4.45,8.44,44.69,44.69,0,0,0,19.4,8.64,64.84,64.84,0,0,0,37.75-3.07c4.68-1.87,9.29-4.29,12.61-8.15,2.05-2.37,2.87-5.1.61-7.83-1.89-2.3-4.17-2.89-6.89-1.05-1.16.78-2.47,1.37-3.71,2.05Z" transform="translate(-149.26 -185.3)"/>
    <path class="cls-2" d="M173.26,465.92c-1.42,1.13-3.64,1.35-4.27,3.36a24.8,24.8,0,0,0,.77,7.41c1.17,4.18,4.44,5.79,8.64,3.84a52.17,52.17,0,0,1,12.27-4.26c7.08-1.35,13.29,1,19.15,4.21,2.35,1.29,4.29,2.66,6.69.58s1.84-4.47.73-6.9c-.36-.79-.71-1.59-1.06-2.39l0,0c-1.94-1.07-2.88-2.9-3.95-4.63a4.39,4.39,0,0,1-2.23-1.83c-5.06-1.37-9.44-5-15.21-4l-1.65.33c-1.14,1.2-2.5,1.12-3.94.6l-1.62.2a1.31,1.31,0,0,1-1.58.47,3.07,3.07,0,0,1-2.39.35,1.28,1.28,0,0,1-1.61.28l-1.59.44C178.14,464.92,176,466.3,173.26,465.92Z" transform="translate(-149.26 -185.3)"/>
    <path class="cls-2" d="M248.26,463.57l-1.31.58L246,465c-4.35,2.84-7.32,6.81-10.14,10.91a.48.48,0,0,1-.43.12c.28,1.48-.46,2.72-1.05,4,.45,1.19-.33,3.15,1.68,3.37,2.44.26,5,.33,7.07-1.46a32.61,32.61,0,0,1,17.53-8c5.17-.67,9.91,2,15.1,2,2.76,0,5.15.21,6.79-2.25a.75.75,0,0,1,.4-.62c.39-3.63-3-5.48-4.44-8.22L274.67,462a9.24,9.24,0,0,1-4.68.4A45.67,45.67,0,0,0,248.26,463.57Z" transform="translate(-149.26 -185.3)"/>
  </g>
</svg>
