<svg id="Capa_1" data-name="Capa 1" xmlns="http://www.w3.org/2000/svg" width="96.94" height="82.92" viewBox="0 0 96.94 82.92">
  <defs>
    <style>
      .cls-1 {
        fill: #747a89;
      }

      .cls-2 {
        fill: #0653ff;
      }

      .cls-3, .cls-5 {
        fill: none;
        stroke: #5b5b5b;
        stroke-linecap: round;
        stroke-linejoin: round;
      }

      .cls-4 {
        fill: #8c9199;
      }

      .cls-5 {
        stroke-width: 2px;
      }

      .cls-6 {
        fill: #5b5b5b;
      }
    </style>
  </defs>
  <title>productosLight</title>
  <g>
    <g>
      <rect class="cls-1" x="676.51" y="431.64" width="28.63" height="31.49" rx="2.99" transform="translate(-408.89 -622.97) rotate(22.7)"/>
      <g>
        <polygon class="cls-2" points="79.68 27.82 81.64 24.13 92.06 22.26 93.54 29.26 83.64 31.04 79.68 27.82"/>
        <path class="cls-3" d="M696.17,433.31c1.48-4.55,11.72-14.44,20.28-14.62" transform="translate(-635.03 -391.04)"/>
      </g>
      <rect class="cls-4" x="659.85" y="426.23" width="28.63" height="31.49" rx="2.99" transform="translate(-751.78 -104.95) rotate(-22.1)"/>
      <g>
        <polygon class="cls-2" points="13.86 23.65 11.9 19.97 1.47 18.09 0 25.09 9.89 26.87 13.86 23.65"/>
        <path class="cls-3" d="M667.43,429.14c-1.48-4.54-11.73-14.43-20.28-14.61" transform="translate(-635.03 -391.04)"/>
      </g>
      <path class="cls-5" d="M652.55,430.8a31,31,0,0,1,62,0" transform="translate(-635.03 -391.04)"/>
      <g>
        <path class="cls-4" d="M716.54,438.65H650.6a3.92,3.92,0,0,1-3.92-3.92h0a3.92,3.92,0,0,1,3.92-3.93h65.94a3.93,3.93,0,0,1,3.92,3.93h0A3.93,3.93,0,0,1,716.54,438.65Z" transform="translate(-635.03 -391.04)"/>
        <path class="cls-3" d="M716.54,438.65H650.6a3.92,3.92,0,0,1-3.92-3.92h0a3.92,3.92,0,0,1,3.92-3.93h65.94a3.93,3.93,0,0,1,3.92,3.93h0A3.93,3.93,0,0,1,716.54,438.65Z" transform="translate(-635.03 -391.04)"/>
        <path class="cls-3" d="M700.92,473.46H666.21a10,10,0,0,1-9.85-8.21l-4.87-26.6h64.16l-4.88,26.6A10,10,0,0,1,700.92,473.46Z" transform="translate(-635.03 -391.04)"/>
        <g>
          <line class="cls-3" x1="26.33" y1="47.6" x2="32.39" y2="82.42"/>
          <line class="cls-3" x1="40.87" y1="47.6" x2="43.92" y2="82.42"/>
        </g>
        <g>
          <line class="cls-3" x1="71.04" y1="47.6" x2="64.98" y2="82.42"/>
          <line class="cls-3" x1="56.32" y1="47.6" x2="53.46" y2="82.42"/>
        </g>
        <line class="cls-3" x1="18.25" y1="57.41" x2="78.9" y2="57.41"/>
        <line class="cls-3" x1="20.28" y1="68.51" x2="76.85" y2="68.51"/>
        <line class="cls-3" x1="22.11" y1="76.83" x2="74.87" y2="76.83"/>
      </g>
    </g>
    <path class="cls-6" d="M653.28,391l.27,1.38a3.39,3.39,0,0,0,2.67,2.67l1.37.26-1.37.27a3.37,3.37,0,0,0-2.67,2.67l-.27,1.37-.26-1.37a3.39,3.39,0,0,0-2.67-2.67l-1.38-.27,1.38-.26a3.4,3.4,0,0,0,2.67-2.67Z" transform="translate(-635.03 -391.04)"/>
    <path class="cls-6" d="M727.66,452.75l.26,1.37a3.39,3.39,0,0,0,2.67,2.67l1.38.27-1.38.26a3.39,3.39,0,0,0-2.67,2.67l-.26,1.38-.27-1.38a3.37,3.37,0,0,0-2.67-2.67l-1.37-.26,1.37-.27a3.37,3.37,0,0,0,2.67-2.67Z" transform="translate(-635.03 -391.04)"/>
  </g>
</svg>
