<svg id="Capa_1" data-name="Capa 1" xmlns="http://www.w3.org/2000/svg" width="595.6" height="509.46" viewBox="0 0 595.6 509.46">
  <defs>
    <style>
      .cls-1 {
        fill: #747a89;
      }

      .cls-2 {
        fill: #0653ff;
      }

      .cls-3, .cls-5 {
        fill: none;
        stroke: #102b66;
        stroke-linecap: round;
        stroke-linejoin: round;
      }

      .cls-3 {
        stroke-width: 6.14px;
      }

      .cls-4 {
        fill: #002370;
      }

      .cls-5 {
        stroke-width: 12.29px;
      }

      .cls-6 {
        fill: #102b66;
      }
    </style>
  </defs>
  <title>AgregarProducto</title>
  <g>
    <g>
      <path class="cls-1" d="M736.7,551.85l-128.39-53.7a18.39,18.39,0,0,1-9.87-24l60.47-144.55A18.37,18.37,0,0,1,683,319.68l128.39,53.7a18.38,18.38,0,0,1,9.86,24.05L760.75,542A18.38,18.38,0,0,1,736.7,551.85Z" transform="translate(-367 -89.62)"/>
      <g>
        <polygon class="cls-2" points="489.55 170.9 501.61 148.27 565.67 136.78 574.7 179.75 513.93 190.7 489.55 170.9"/>
        <path class="cls-3" d="M742.66,349.31c9.06-27.93,72-88.7,124.58-89.8" transform="translate(-367 -89.62)"/>
      </g>
      <path class="cls-4" d="M708.32,466,579.38,518.35a18.38,18.38,0,0,1-24-10.12L496.48,363.05a18.37,18.37,0,0,1,10.12-23.94l128.94-52.36a18.38,18.38,0,0,1,24,10.12L718.43,442A18.39,18.39,0,0,1,708.32,466Z" transform="translate(-367 -89.62)"/>
      <g>
        <polygon class="cls-2" points="85.15 145.31 73.09 122.68 9.03 111.18 0 154.16 60.77 165.11 85.15 145.31"/>
        <path class="cls-3" d="M566,323.71C557,295.79,494,235,441.46,233.92" transform="translate(-367 -89.62)"/>
      </g>
      <path class="cls-5" d="M474.63,333.93c0-105.25,85.32-190.58,190.58-190.58s190.57,85.33,190.57,190.58" transform="translate(-367 -89.62)"/>
      <g>
        <path class="cls-4" d="M867.78,382.11H462.63A24.1,24.1,0,0,1,438.54,358h0a24.09,24.09,0,0,1,24.09-24.09H867.78A24.08,24.08,0,0,1,891.87,358h0A24.09,24.09,0,0,1,867.78,382.11Z" transform="translate(-367 -89.62)"/>
        <path class="cls-3" d="M867.78,382.11H462.63A24.1,24.1,0,0,1,438.54,358h0a24.09,24.09,0,0,1,24.09-24.09H867.78A24.08,24.08,0,0,1,891.87,358h0A24.09,24.09,0,0,1,867.78,382.11Z" transform="translate(-367 -89.62)"/>
        <path class="cls-3" d="M771.84,596H558.57A61.55,61.55,0,0,1,498,545.54L468.1,382.11H862.31L832.38,545.54A61.54,61.54,0,0,1,771.84,596Z" transform="translate(-367 -89.62)"/>
        <g>
          <line class="cls-3" x1="161.81" y1="292.49" x2="199.04" y2="506.38"/>
          <line class="cls-3" x1="251.12" y1="292.49" x2="269.85" y2="506.38"/>
        </g>
        <g>
          <line class="cls-3" x1="436.5" y1="292.49" x2="399.27" y2="506.38"/>
          <line class="cls-3" x1="346.02" y1="292.49" x2="328.45" y2="506.38"/>
        </g>
        <line class="cls-3" x1="112.13" y1="352.72" x2="484.77" y2="352.72"/>
        <line class="cls-3" x1="124.62" y1="420.91" x2="472.21" y2="420.91"/>
        <line class="cls-3" x1="135.86" y1="472.07" x2="460.03" y2="472.07"/>
      </g>
    </g>
    <path class="cls-6" d="M479.13,89.62l1.64,8.44a20.71,20.71,0,0,0,16.4,16.4l8.45,1.64-8.45,1.63a20.72,20.72,0,0,0-16.4,16.41l-1.64,8.44-1.63-8.44a20.72,20.72,0,0,0-16.41-16.41l-8.44-1.63,8.44-1.64a20.71,20.71,0,0,0,16.41-16.4Z" transform="translate(-367 -89.62)"/>
    <path class="cls-6" d="M936.11,468.74l1.64,8.44a20.72,20.72,0,0,0,16.4,16.41l8.45,1.63-8.45,1.64a20.73,20.73,0,0,0-16.4,16.4l-1.64,8.45-1.63-8.45a20.73,20.73,0,0,0-16.4-16.4l-8.45-1.64,8.45-1.63a20.72,20.72,0,0,0,16.4-16.41Z" transform="translate(-367 -89.62)"/>
  </g>
</svg>
