<svg id="Capa_1" data-name="Capa 1" xmlns="http://www.w3.org/2000/svg" width="75.36" height="76.09" viewBox="0 0 75.36 76.09">
  <defs>
    <style>
      .cls-1 {
        fill: #000b2a;
      }

      .cls-2 {
        fill: #747a89;
      }

      .cls-3 {
        fill: none;
        stroke: #000b2a;
        stroke-linecap: round;
        stroke-linejoin: round;
        stroke-width: 2px;
      }

      .cls-4 {
        fill: #0653ff;
      }

      .cls-5 {
        fill: #002370;
      }
    </style>
  </defs>
  <title>AgregarCliente</title>
  <ellipse class="cls-1" cx="36.87" cy="39.87" rx="36.87" ry="36.22"/>
  <rect class="cls-1" x="17.45" y="6.01" width="40" height="58.46" rx="0.87"/>
  <rect class="cls-2" x="17.45" y="3.28" width="40" height="60.2" rx="0.7"/>
  <rect class="cls-3" x="20.54" y="6.86" width="33.48" height="51.15" rx="0.57"/>
  <path class="cls-1" d="M683.52,408.89h0a1.65,1.65,0,0,1-1.64-1.64h0a1.64,1.64,0,0,1,1.64-1.64h0a1.64,1.64,0,0,1,1.64,1.64h0A1.65,1.65,0,0,1,683.52,408.89Z" transform="translate(-645.82 -346.45)"/>
  <g>
    <ellipse class="cls-1" cx="30.56" cy="22.03" rx="1.9" ry="1.62"/>
    <path class="cls-1" d="M679.6,373.63a5.92,5.92,0,0,0-.06-.94c-.13-1-2.24-2.35-2.24-2.35h-1.84s-2.11,1.32-2.25,2.35a6.15,6.15,0,0,0,0,1.33v.34c0,.08.11.14.23.14h6c.12,0,.22-.06.22-.14v-.72Z" transform="translate(-645.82 -346.45)"/>
    <rect class="cls-1" x="26" y="31.73" width="9.21" height="0.66" rx="0.08"/>
    <path class="cls-1" d="M678.23,376.68h-3.6a3.45,3.45,0,0,1-3.44-3.44v-4.76a3.44,3.44,0,0,1,3.44-3.44h3.6a3.45,3.45,0,0,1,3.44,3.44v4.76A3.45,3.45,0,0,1,678.23,376.68Zm-3.6-11.11a2.91,2.91,0,0,0-2.91,2.91v4.76a2.91,2.91,0,0,0,2.91,2.91h3.6a2.92,2.92,0,0,0,2.91-2.91v-4.76a2.91,2.91,0,0,0-2.91-2.91Z" transform="translate(-645.82 -346.45)"/>
  </g>
  <path class="cls-4" d="M710.2,365.79h-3.57a.75.75,0,0,1-.76-.73v-3.43a.75.75,0,0,1,.76-.73h3.57a.75.75,0,0,0,.76-.73V356.7a.75.75,0,0,1,.76-.73h3.57a.75.75,0,0,1,.76.73v3.47a.75.75,0,0,0,.76.73h3.61a.75.75,0,0,1,.76.73v3.43a.75.75,0,0,1-.76.73h-3.61a.75.75,0,0,0-.76.73V370a.75.75,0,0,1-.76.73h-3.57A.75.75,0,0,1,711,370v-3.43A.75.75,0,0,0,710.2,365.79Z" transform="translate(-645.82 -346.45)"/>
  <path class="cls-5" d="M711.1,385.59a41.83,41.83,0,0,0-.28-5.31c-.48-4.52-6.64-10-9.46-12.25a4.92,4.92,0,0,0-3.11-1.1h-5.47a4.91,4.91,0,0,0-3.1,1.1c-2.83,2.28-9,7.73-9.47,12.25a36,36,0,0,0-.16,7.32c0,.15,0,.29,0,.43v1.72c0,.41.49.75,1.09.75H710c.6,0,1.1-.34,1.1-.75v-4.1S711.1,385.61,711.1,385.59Z" transform="translate(-645.82 -346.45)"/>
  <ellipse class="cls-5" cx="49.7" cy="9.56" rx="10.35" ry="9.56"/>
</svg>
