<svg width="782" height="168" viewBox="0 0 782 168" fill="none" xmlns="http://www.w3.org/2000/svg">
<g clip-path="url(#clip0_258_2)">
<path d="M404.909 42.4951H394.254V45.5626H404.909V42.4951Z" fill="white"/>
<path d="M399.99 51.207H394.254V54.2746H399.99V51.207Z" fill="white"/>
<path d="M404.909 59.9199H394.254V62.9874H404.909V59.9199Z" fill="white"/>
<path d="M399.99 68.6138H394.254V71.6813H399.99V68.6138Z" fill="white"/>
<path d="M404.909 77.3267H394.254V80.3942H404.909V77.3267Z" fill="white"/>
<path d="M399.99 86.0396H394.254V89.1071H399.99V86.0396Z" fill="white"/>
<path d="M404.909 94.751H394.254V97.8185H404.909V94.751Z" fill="white"/>
<path d="M392.711 116.533C392.709 114.279 392.057 112.074 390.834 110.181C389.61 108.288 387.868 106.788 385.814 105.86L383.672 104.88V84.2601C383.672 82.3179 382.456 80.6299 381.022 80.6299V128.204C384.116 128.194 387.081 126.962 389.271 124.776C391.46 122.59 392.697 119.627 392.711 116.533Z" fill="white"/>
<path d="M378.336 84.26V104.88L376.195 105.86C373.435 107.114 371.263 109.381 370.128 112.192C368.993 115.003 368.981 118.142 370.096 120.961C370.608 122.423 371.437 123.753 372.522 124.857C373.608 125.962 374.924 126.813 376.376 127.35C377.853 127.923 379.421 128.224 381.005 128.24V80.666C379.571 80.666 378.336 82.3178 378.336 84.26Z" fill="white"/>
<path d="M400.026 116.532C400.026 121.574 398.025 126.41 394.461 129.977C390.898 133.544 386.064 135.55 381.022 135.555V131.925H381.349C381.833 131.952 382.317 131.952 382.801 131.925H383.382L384.525 131.707L385.124 131.543C385.501 131.447 385.871 131.326 386.232 131.18L386.74 130.999C387.205 130.819 387.659 130.613 388.101 130.382L388.265 130.291C388.753 130.029 389.226 129.738 389.68 129.42L390.098 129.111C390.406 128.875 390.715 128.639 391.005 128.385L391.459 127.986C391.727 127.739 391.981 127.479 392.221 127.205L392.621 126.77C392.893 126.461 393.129 126.134 393.383 125.808L393.655 125.445C393.967 124.99 394.252 124.517 394.508 124.029C394.508 123.902 394.617 123.793 394.69 123.684C394.89 123.285 395.053 122.904 395.234 122.504C395.416 122.105 395.361 122.123 395.416 121.942C395.55 121.585 395.665 121.221 395.761 120.852C395.761 120.653 395.87 120.453 395.924 120.253C395.979 120.054 396.088 119.473 396.142 119.074C396.161 118.893 396.161 118.71 396.142 118.529C396.232 117.928 396.275 117.322 396.269 116.714C396.264 113.753 395.406 110.856 393.796 108.37C392.187 105.885 389.894 103.917 387.193 102.701V44.9267C387.195 43.9617 387.029 43.0036 386.704 42.0952C386.305 40.8476 385.532 39.7532 384.49 38.9607C383.447 38.1683 382.186 37.7162 380.877 37.6663V34.0361C383.639 34.1727 386.236 35.3927 388.105 37.4314C389.974 39.47 390.964 42.1631 390.86 44.9267V100.324C393.643 102.02 395.946 104.399 397.551 107.236C399.155 110.073 400.007 113.273 400.026 116.532Z" fill="white"/>
<path d="M366.646 122.196C367.338 124.155 368.45 125.939 369.905 127.422C371.36 128.905 373.122 130.052 375.068 130.781C375.662 131.006 376.268 131.2 376.883 131.362L377.409 131.489C377.863 131.489 378.335 131.67 378.789 131.725H379.261C379.826 131.797 380.396 131.833 380.967 131.834V135.464C378.486 135.458 376.026 135.003 373.706 134.121C371.267 133.202 369.057 131.76 367.232 129.898C365.407 128.036 364.012 125.797 363.142 123.339C361.573 119.179 361.493 114.604 362.916 110.391C364.339 106.179 367.177 102.589 370.947 100.233V44.9267C370.844 42.1631 371.834 39.47 373.702 37.4314C375.571 35.3927 378.168 34.1727 380.93 34.0361V37.6663C379.621 37.7136 378.358 38.1647 377.315 38.9575C376.272 39.7504 375.5 40.8463 375.104 42.0952C374.77 43.0013 374.604 43.9609 374.614 44.9267V102.52C371.029 104.167 368.208 107.12 366.727 110.777C365.246 114.434 365.217 118.518 366.646 122.196Z" fill="white"/>
</g>
<circle cx="383.936" cy="84.9365" r="78.4328" stroke="#641E1E" stroke-width="9.00749"/>
<circle cx="698.937" cy="82.9365" r="78.4328" stroke="#643B1E" stroke-width="9.00749"/>
<circle cx="82.9365" cy="83.9365" r="78.4328" stroke="#1E2D64" stroke-width="9.00749"/>
<path d="M63.3032 87.8863C61.1444 86.7865 58.7411 86.2163 56.2972 86.2163C37.2343 87.5604 37.2343 115.299 56.2972 116.644H101.47C106.969 116.684 112.264 114.648 116.297 110.941C129.698 99.2507 122.529 75.748 104.891 73.5075C98.5372 35.3409 43.4256 49.8418 56.5008 86.2163" stroke="white" stroke-width="4.06442" stroke-miterlimit="10" stroke-linecap="round" stroke-linejoin="round"/>
<path d="M98.2539 75.3009C100.372 74.2418 102.694 73.6716 105.056 73.6309" stroke="white" stroke-width="4.06442" stroke-miterlimit="10" stroke-linecap="round" stroke-linejoin="round"/>
<g clip-path="url(#clip1_258_2)">
<path d="M692.717 52.4426C688.88 54.4857 684.74 55.9015 680.453 56.6356C675.228 57.0467 669.179 54.3335 665.989 54.1691C662.799 54.0047 654 54.9091 654 54.9091C654 54.9091 665.274 37.3425 680.453 39.6445C695.632 41.9465 692.854 52.0316 692.854 52.0316L692.717 52.4426Z" fill="white"/>
<path d="M699.234 63.8152V84.6155L697.2 84.0401L697.392 64.5552C697.42 62.05 696.839 59.5752 695.699 57.342C694.56 55.1088 692.895 53.1832 690.848 51.7296C688.187 49.9809 685.263 48.6672 682.186 47.8381C676.554 46.843 670.798 46.7505 665.137 47.5641C665.137 47.5641 676.686 44.8236 683.038 46.8242C686.344 47.7928 689.506 49.1935 692.442 50.9898C694.532 52.4193 696.242 54.3336 697.426 56.5678C698.609 58.8019 699.229 61.289 699.234 63.8152Z" fill="white"/>
<path d="M706.301 52.1685C709.908 53.6679 713.699 54.6816 717.575 55.183C722.772 55.6214 728.849 52.8811 732.011 52.744C735.173 52.607 744 53.4564 744 53.4564C744 53.4564 732.726 35.8899 717.575 38.1919C702.423 40.4939 705.283 51.5929 705.283 51.5929L706.301 52.1685Z" fill="white"/>
<path d="M699.233 63.8152V84.6155L701.241 84.0401L701.048 64.5552C701.021 62.05 701.602 59.5752 702.741 57.342C703.881 55.1088 705.545 53.1832 707.593 51.7296C710.253 49.9809 713.178 48.6672 716.254 47.8381C721.886 46.843 727.642 46.7505 733.303 47.5641C733.303 47.5641 721.754 44.8236 715.402 46.8242C712.097 47.7928 708.934 49.1935 705.998 50.9898C703.911 52.4207 702.205 54.3359 701.027 56.5703C699.849 58.8046 699.233 61.291 699.233 63.8152Z" fill="white"/>
<path d="M715.98 131.971C706.603 124.627 707.126 111.445 697.749 104.073L698.959 103.388C707.923 110.979 707.016 124.38 715.98 131.971Z" fill="white"/>
<path d="M715.981 131.971C707.401 124.161 708.694 110.486 700.142 102.675C699.73 102.895 699.344 103.141 698.959 103.388C707.924 110.979 707.016 124.38 715.981 131.971Z" fill="white"/>
<path d="M681.855 131.971C691.204 124.627 690.709 111.445 700.086 104.073L698.876 103.388C689.912 110.979 690.819 124.38 681.855 131.971Z" fill="white"/>
<path d="M681.855 131.971C690.434 124.161 689.114 110.486 697.694 102.675L698.876 103.388C689.912 110.979 690.819 124.38 681.855 131.971Z" fill="white"/>
<path d="M698.877 85.246V92.2068L697.502 90.261C697.414 88.3515 696.72 86.5191 695.522 85.0267C693.542 82.6151 689.775 88.288 683.038 86.9725C679.078 86.2052 676.356 83.4099 677.291 80.9983C677.924 79.3266 680.371 77.8467 685.54 77.4082C694.862 76.5587 697.777 81.5189 698.657 83.9579C698.776 84.3783 698.849 84.8101 698.877 85.246Z" fill="white"/>
<path d="M698.876 91.7139V84.8626C698.876 84.8626 700.058 75.9287 712.322 77.0249C724.586 78.1211 721.424 85.2463 714.715 86.6166C708.005 87.9868 704.21 82.2591 702.231 84.6433C701.032 86.1357 700.339 87.9683 700.251 89.8778L698.876 91.7139Z" fill="white"/>
<path d="M698.877 135.973C694.587 125.011 701.627 113.802 697.502 102.73H698.877C702.699 113.802 695.055 124.901 698.877 135.973Z" fill="white"/>
<path d="M698.876 135.973C695.522 125.011 703.633 113.802 700.251 102.73H698.876C702.698 113.802 695.054 124.901 698.876 135.973Z" fill="white"/>
<path d="M694.504 80.3404C693.129 78.8331 688.592 79.4908 682.9 81.2173C681.106 81.8408 679.14 81.7626 677.401 80.9982C678.033 79.3265 680.481 77.8467 685.65 77.4082C694.752 76.6408 695.769 81.7106 694.504 80.3404Z" fill="white"/>
<path d="M699.399 83.4649C700.822 82.3553 702.172 81.1562 703.441 79.8749C704.816 78.3402 709.326 78.9979 715.045 80.7244C716.838 81.3619 718.809 81.2833 720.545 80.5051C719.885 78.8334 717.465 77.3536 712.295 76.9151C703.194 76.0655 700.279 81.0259 699.399 83.4649Z" fill="white"/>
<path d="M698.793 51.9761C699.908 53.8503 700.55 55.9662 700.663 58.1422C700.251 59.7688 699.718 61.3626 699.069 62.9106C698.122 61.0535 697.491 59.0535 697.199 56.9912C697.53 55.2627 698.065 53.5792 698.793 51.9761Z" fill="white"/>
<path d="M698.657 98.2904C698.932 96.3721 698.657 94.9195 699.042 94.2344V88.5068H697.639V98.5644C697.969 99.6058 698.519 99.8799 698.657 98.2904Z" fill="white"/>
<path d="M699.042 88.5068V94.2344C699.289 93.8233 699.701 93.6589 700.416 93.7685V88.5068H699.042Z" fill="white"/>
<path d="M698.657 98.2909C698.437 99.8804 697.969 99.6064 697.639 98.6472V102.758C697.651 103.126 697.798 103.477 698.052 103.744L698.959 104.731V94.2349C698.519 94.92 698.932 96.3726 698.657 98.2909Z" fill="white"/>
<path d="M699.042 94.2348V104.731L700.059 103.772C700.339 103.475 700.496 103.083 700.499 102.676V93.769C699.701 93.6593 699.289 93.8237 699.042 94.2348Z" fill="white"/>
</g>
<defs>
<clipPath id="clip0_258_2">
<rect width="42.9271" height="101.555" fill="white" transform="translate(362 34)"/>
</clipPath>
<clipPath id="clip1_258_2">
<rect width="90" height="98" fill="white" transform="translate(654 38)"/>
</clipPath>
</defs>
</svg>
