<svg width="279" height="279" viewBox="0 0 279 279" fill="none" xmlns="http://www.w3.org/2000/svg">
<circle cx="139.5" cy="139.5" r="132.5" stroke="#643B1E" stroke-width="14"/>
<g clip-path="url(#clip0_25_880)">
<path d="M126.015 81.064C118.086 85.3171 109.529 88.2642 100.669 89.7924C89.8716 90.6481 77.3693 85.0003 70.7772 84.658C64.1851 84.3157 46 86.1984 46 86.1984C46 86.1984 69.2997 49.6312 100.669 54.4232C132.038 59.2151 126.299 80.2085 126.299 80.2085L126.015 81.064Z" fill="#10342F"/>
<path d="M139.483 104.738V148.037L135.278 146.839L135.676 106.279C135.732 101.064 134.532 95.9122 132.177 91.2635C129.822 86.6147 126.382 82.6063 122.15 79.5804C116.651 75.9402 110.608 73.2056 104.249 71.4798C92.6098 69.4083 80.7155 69.2158 69.0155 70.9095C69.0155 70.9095 92.8836 65.2047 106.011 69.3691C112.842 71.3854 119.378 74.3013 125.446 78.0404C129.765 81.0162 133.3 85.001 135.745 89.6517C138.19 94.3024 139.473 99.4797 139.483 104.738Z" fill="#10342F"/>
<path d="M154.088 80.4934C161.542 83.6147 169.378 85.7248 177.388 86.7685C188.128 87.6812 200.687 81.9768 207.223 81.6915C213.758 81.4063 232 83.1745 232 83.1745C232 83.1745 208.7 46.6073 177.388 51.3993C146.075 56.1912 151.985 79.2953 151.985 79.2953L154.088 80.4934Z" fill="#10342F"/>
<path d="M139.483 104.738V148.037L143.632 146.839L143.234 106.279C143.177 101.064 144.377 95.9122 146.732 91.2635C149.087 86.6147 152.527 82.6063 156.759 79.5804C162.258 75.9402 168.301 73.2056 174.66 71.4798C186.3 69.4083 198.194 69.2158 209.894 70.9095C209.894 70.9095 186.026 65.2047 172.898 69.3691C166.067 71.3854 159.531 74.3013 153.463 78.0404C149.151 81.0191 145.625 85.0058 143.19 89.6569C140.755 94.308 139.482 99.4838 139.483 104.738Z" fill="#10342F"/>
<path d="M174.092 246.614C154.713 231.326 155.793 203.886 136.414 188.54L138.915 187.114C157.441 202.916 155.565 230.812 174.092 246.614Z" fill="#10342F"/>
<path d="M174.091 246.614C156.361 230.356 159.032 201.889 141.358 185.631C140.506 186.087 139.71 186.601 138.915 187.114C157.441 202.916 155.565 230.812 174.091 246.614Z" fill="#10342F"/>
<path d="M103.567 246.614C122.889 231.326 121.866 203.886 141.245 188.54L138.744 187.114C120.218 202.916 122.094 230.812 103.567 246.614Z" fill="#10342F"/>
<path d="M103.567 246.614C121.298 230.356 118.57 201.889 136.301 185.631L138.744 187.114C120.218 202.916 122.094 230.812 103.567 246.614Z" fill="#10342F"/>
<path d="M138.744 149.349V163.839L135.903 159.789C135.72 155.814 134.288 151.999 131.811 148.893C127.719 143.873 119.934 155.681 106.011 152.943C97.8277 151.346 92.2019 145.527 94.1341 140.507C95.4411 137.027 100.499 133.947 111.183 133.034C130.448 131.265 136.471 141.591 138.29 146.668C138.535 147.543 138.688 148.442 138.744 149.349Z" fill="#10342F"/>
<path d="M138.744 162.812V148.55C138.744 148.55 141.188 129.953 166.534 132.235C191.879 134.517 185.344 149.349 171.478 152.201C157.611 155.054 149.769 143.131 145.677 148.094C143.2 151.201 141.768 155.015 141.586 158.99L138.744 162.812Z" fill="#10342F"/>
<path d="M138.744 254.943C129.879 232.124 144.427 208.792 135.903 185.745H138.744C146.644 208.792 130.845 231.896 138.744 254.943Z" fill="#10342F"/>
<path d="M138.744 254.943C131.811 232.124 148.576 208.792 141.586 185.745H138.744C146.644 208.792 130.845 231.896 138.744 254.943Z" fill="#10342F"/>
<path d="M129.708 139.138C126.867 136 117.49 137.369 105.727 140.963C102.017 142.261 97.9556 142.098 94.3612 140.507C95.6683 137.027 100.726 133.947 111.41 133.034C130.22 131.436 132.323 141.99 129.708 139.138Z" fill="#10342F"/>
<path d="M139.824 145.641C142.765 143.331 145.555 140.835 148.178 138.168C151.019 134.973 160.339 136.342 172.16 139.936C175.865 141.263 179.938 141.1 183.525 139.48C182.161 136 177.16 132.919 166.477 132.006C147.666 130.238 141.643 140.564 139.824 145.641Z" fill="#10342F"/>
<path d="M138.574 80.0938C140.878 83.9951 142.204 88.3998 142.438 92.9293C141.586 96.3154 140.484 99.6332 139.142 102.855C137.187 98.9897 135.881 94.8264 135.278 90.5334C135.962 86.9353 137.069 83.4309 138.574 80.0938Z" fill="#10342F"/>
<path d="M138.29 176.504C138.858 172.51 138.29 169.486 139.085 168.06V156.138H136.187V177.074C136.869 179.242 138.005 179.812 138.29 176.504Z" fill="#10342F"/>
<path d="M139.085 156.138V168.06C139.597 167.205 140.449 166.862 141.927 167.091V156.138H139.085Z" fill="#10342F"/>
<path d="M138.29 176.504C137.835 179.812 136.869 179.242 136.187 177.245V185.802C136.212 186.569 136.515 187.299 137.039 187.856L138.915 189.91V168.061C138.005 169.487 138.858 172.51 138.29 176.504Z" fill="#10342F"/>
<path d="M139.085 168.06V189.909L141.188 187.913C141.767 187.294 142.091 186.479 142.097 185.631V167.09C140.449 166.862 139.597 167.204 139.085 168.06Z" fill="#10342F"/>
</g>
<defs>
<clipPath id="clip0_25_880">
<rect width="186" height="204" fill="white" transform="translate(46 51)"/>
</clipPath>
</defs>
</svg>
