<svg width="329" height="329" viewBox="0 0 329 329" fill="none" xmlns="http://www.w3.org/2000/svg">
<circle cx="164.5" cy="164.5" r="151.071" stroke="#641E1E" stroke-width="26.8571"/>
<g clip-path="url(#clip0_205_778)">
<path d="M207.108 76.8481H185.975V82.9324H207.108V76.8481Z" fill="#10342F"/>
<path d="M197.351 94.1289H185.975V100.213H197.351V94.1289Z" fill="#10342F"/>
<path d="M207.108 111.41H185.975V117.494H207.108V111.41Z" fill="#10342F"/>
<path d="M197.351 128.654H185.975V134.739H197.351V128.654Z" fill="#10342F"/>
<path d="M207.108 145.935H185.975V152.019H207.108V145.935Z" fill="#10342F"/>
<path d="M197.351 163.216H185.975V169.3H197.351V163.216Z" fill="#10342F"/>
<path d="M207.108 180.497H185.975V186.581H207.108V180.497Z" fill="#10342F"/>
<path d="M182.915 223.7C182.91 219.23 181.617 214.856 179.19 211.101C176.764 207.347 173.308 204.371 169.234 202.531L164.986 200.587V159.689C164.986 155.837 162.574 152.489 159.73 152.489V246.849C165.867 246.83 171.747 244.386 176.09 240.05C180.433 235.714 182.886 229.837 182.915 223.7Z" fill="#10342F"/>
<path d="M154.401 159.689V200.587L150.153 202.531C144.68 205.019 140.372 209.516 138.12 215.091C135.869 220.666 135.846 226.893 138.057 232.484C139.073 235.383 140.717 238.021 142.87 240.212C145.023 242.402 147.633 244.091 150.513 245.157C153.442 246.293 156.552 246.89 159.694 246.921V152.561C156.85 152.561 154.401 155.837 154.401 159.689Z" fill="#10332F"/>
<path d="M197.423 223.699C197.423 233.7 193.453 243.291 186.385 250.366C179.317 257.44 169.73 261.419 159.73 261.429V254.229H160.378C161.337 254.282 162.299 254.282 163.258 254.229H164.41L166.678 253.796L167.866 253.473C168.614 253.282 169.347 253.041 170.062 252.753L171.07 252.393C171.993 252.036 172.894 251.628 173.77 251.168L174.095 250.988C175.064 250.468 176.001 249.891 176.902 249.26L177.731 248.648C178.343 248.18 178.955 247.712 179.531 247.208L180.431 246.416C180.962 245.927 181.466 245.411 181.943 244.868L182.735 244.004C183.275 243.392 183.743 242.744 184.247 242.096L184.787 241.376C185.406 240.474 185.971 239.537 186.479 238.568C186.479 238.316 186.695 238.1 186.839 237.884C187.235 237.092 187.559 236.336 187.919 235.544C188.279 234.752 188.171 234.788 188.279 234.428C188.545 233.72 188.773 232.999 188.963 232.268C188.963 231.872 189.179 231.476 189.287 231.08C189.395 230.684 189.611 229.532 189.719 228.74C189.756 228.381 189.756 228.019 189.719 227.66C189.898 226.468 189.982 225.264 189.971 224.059C189.962 218.186 188.259 212.44 185.066 207.51C181.874 202.581 177.326 198.676 171.97 196.266V81.6732C171.973 79.759 171.645 77.8588 170.998 76.057C170.209 73.5825 168.675 71.4118 166.607 69.84C164.539 68.2681 162.037 67.3715 159.442 67.2726V60.0723C164.92 60.3432 170.071 62.7629 173.778 66.8065C177.485 70.8501 179.448 76.1916 179.242 81.6732V191.55C184.763 194.914 189.331 199.634 192.513 205.261C195.695 210.888 197.386 217.235 197.423 223.699Z" fill="#10342F"/>
<path d="M131.216 234.932C132.589 238.818 134.796 242.356 137.682 245.298C140.567 248.239 144.062 250.514 147.921 251.961C149.1 252.407 150.302 252.792 151.521 253.113L152.566 253.365C153.466 253.365 154.401 253.725 155.301 253.833H156.237C157.36 253.975 158.49 254.047 159.622 254.049V261.249C154.7 261.236 149.821 260.334 145.221 258.585C140.382 256.762 135.999 253.903 132.38 250.209C128.76 246.515 125.992 242.075 124.268 237.2C121.155 228.948 120.997 219.874 123.819 211.519C126.641 203.164 132.27 196.044 139.749 191.37V81.6732C139.543 76.1916 141.507 70.8501 145.213 66.8065C148.92 62.7629 154.071 60.3432 159.55 60.0723V67.2726C156.953 67.3664 154.448 68.261 152.379 69.8336C150.31 71.4062 148.779 73.5798 147.993 76.057C147.33 77.8542 147.001 79.7575 147.021 81.6732V195.906C139.911 199.173 134.315 205.031 131.378 212.284C128.44 219.537 128.383 227.638 131.216 234.932Z" fill="#10342F"/>
</g>
<defs>
<clipPath id="clip0_205_778">
<rect width="85.1436" height="201.429" fill="white" transform="translate(122 60)"/>
</clipPath>
</defs>
</svg>
