<svg width="309" height="457" viewBox="0 0 309 457" fill="none" xmlns="http://www.w3.org/2000/svg">
<mask id="mask0_256_29" style="mask-type:luminance" maskUnits="userSpaceOnUse" x="1" y="254" width="284" height="203">
<path d="M284.87 254.381H1.81445V456.629H284.87V254.381Z" fill="white"/>
</mask>
<g mask="url(#mask0_256_29)">
<path d="M240.425 236.53H240.397V254.525H240.425V236.53Z" fill="white"/>
<path d="M253.28 254.526H240.388V236.548V235.029H252.355C254.568 235.029 256.356 232.98 256.356 230.454C256.356 227.928 254.541 225.879 252.355 225.879H240.388V225.726V200.476V195.982H252.355C254.568 195.982 256.356 193.942 256.356 191.416C256.356 188.89 254.541 186.84 252.355 186.84H240.361V165.627V156.944H252.327C254.541 156.944 256.328 154.903 256.328 152.378C256.328 149.852 254.514 147.802 252.327 147.802H240.334V134.319V123.092V117.879H252.327C254.541 117.879 256.328 115.829 256.328 113.303C256.328 110.778 254.514 108.737 252.327 108.737H239.109C237.335 101.873 233.643 95.6431 228.457 90.7638C223.271 85.8846 216.801 82.5534 209.79 81.1529C202.78 79.7525 195.512 80.3394 188.823 82.8464C182.134 85.3534 176.294 89.6788 171.974 95.3258C167.6 82.3621 158.859 71.2832 147.217 63.9481C135.576 56.6129 121.743 53.4677 108.038 55.0401C94.3338 56.6125 81.592 62.8068 71.9507 72.5839C62.3094 82.361 56.3551 95.1259 55.0868 108.737H42.7576C41.6077 108.811 40.534 109.333 39.7708 110.188C39.0077 111.044 38.6171 112.164 38.6842 113.303C38.6842 115.829 40.4986 117.879 42.7576 117.879H54.8782V147.775H42.7576C40.5077 147.775 38.6842 149.825 38.6842 152.351C38.6171 153.49 39.0077 154.61 39.7708 155.466C40.534 156.321 41.6077 156.843 42.7576 156.917H54.8782V186.813H42.7576C40.5077 186.813 38.6842 188.863 38.6842 191.389C38.6171 192.529 39.0077 193.648 39.7708 194.504C40.534 195.359 41.6077 195.881 42.7576 195.955H54.8782V225.852H42.7576C40.5077 225.852 38.6842 227.901 38.6842 230.427C38.6842 232.953 40.4986 235.002 42.7576 235.002H54.8782V254.526H43.2838C38.5877 254.533 34.0861 256.385 30.7663 259.676C27.4465 262.967 25.5795 267.428 25.5747 272.081V319.389C25.5795 324.042 27.4465 328.503 30.7663 331.794C34.0861 335.085 38.5877 336.937 43.2838 336.944H46.2958L51.7391 412.602C52.0136 416.232 53.6616 419.624 56.3533 422.101C59.0449 424.578 62.5814 425.956 66.2548 425.96H226.898C230.493 425.959 233.962 424.645 236.64 422.268C239.319 419.891 241.018 416.619 241.413 413.079L250.005 336.944H253.28C257.979 336.939 262.483 335.088 265.807 331.797C269.13 328.506 271 324.044 271.007 319.389V272.081C271 267.426 269.13 262.963 265.807 259.672C262.483 256.381 257.979 254.531 253.28 254.526ZM175.159 118.04C175.289 110.989 178.207 104.27 183.286 99.3292C188.365 94.3882 195.198 91.6199 202.316 91.6199C209.434 91.6199 216.268 94.3882 221.347 99.3292C226.426 104.27 229.344 110.989 229.474 118.04V254.382H192.387V239.892V235.011H203.092C205.342 235.011 207.156 232.962 207.156 230.436C207.156 227.91 205.342 225.861 203.092 225.861H192.369V204.368V195.964H203.074C205.324 195.964 207.138 193.924 207.138 191.398C207.138 188.872 205.324 186.822 203.074 186.822H192.35V168.845V157.986V156.899H203.074C205.324 156.899 207.138 154.858 207.138 152.333C207.138 149.807 205.324 147.757 203.074 147.757H191.334C189.136 137.655 183.391 128.654 175.122 122.355L175.159 118.04ZM175.159 137.717C179.271 143.267 181.496 149.969 181.509 156.854V254.382H115.018V156.854C115.046 149.907 117.291 143.148 121.433 137.543C125.575 131.938 131.4 127.775 138.076 125.651C144.751 123.527 151.934 123.55 158.595 125.717C165.256 127.885 171.054 132.085 175.159 137.717ZM65.8194 114.112C65.8194 101.177 71.0057 88.7713 80.2374 79.6246C89.4691 70.4779 101.99 65.3393 115.046 65.3393C128.101 65.3393 140.622 70.4779 149.854 79.6246C159.085 88.7713 164.272 101.177 164.272 114.112V116.279C158.326 113.968 151.944 112.965 145.569 113.34C139.193 113.716 132.976 115.46 127.348 118.453C121.721 121.446 116.817 125.615 112.977 130.672C109.138 135.729 106.454 141.553 105.111 147.739H93.3175C91.0675 147.739 89.2531 149.789 89.2531 152.315C89.2531 154.84 91.0675 156.881 93.3175 156.881H104.104V157.672H104.023V168.521H104.104V186.777H93.3265C91.0766 186.777 89.2622 188.827 89.2622 191.353C89.2622 193.879 91.0766 195.919 93.3265 195.919H104.023V204.18H104.104V225.816H93.3265C91.0766 225.816 89.2622 227.865 89.2622 230.391C89.2622 232.917 91.0766 234.966 93.3265 234.966H104.023V239.847H104.104V254.337H65.8194V114.112ZM230.572 411.874C230.471 412.774 230.039 413.606 229.358 414.21C228.676 414.814 227.794 415.147 226.88 415.146H66.2367C65.3211 415.149 64.4382 414.808 63.7652 414.193C63.0922 413.578 62.6787 412.734 62.6078 411.829L57.1644 336.944H238.946L230.572 411.874ZM260.093 319.389C260.088 321.177 259.369 322.89 258.092 324.154C256.815 325.417 255.085 326.128 253.28 326.13H43.2838C41.4815 326.126 39.7546 325.413 38.481 324.15C37.2075 322.886 36.491 321.174 36.4886 319.389V272.081C36.4886 270.294 37.2043 268.581 38.4784 267.317C39.7524 266.053 41.4808 265.342 43.2838 265.339H253.28C255.085 265.339 256.817 266.049 258.095 267.313C259.372 268.577 260.091 270.292 260.093 272.081V319.389Z" fill="#F7931E"/>
</g>
<mask id="mask1_256_29" style="mask-type:luminance" maskUnits="userSpaceOnUse" x="0" y="0" width="309" height="256">
<path d="M308.458 0H0V255.281H308.458V0Z" fill="white"/>
</mask>
<g mask="url(#mask1_256_29)">
<path d="M242.992 134.982H242.965V155.504H242.992V134.982Z" fill="white"/>
<path d="M244.617 166.47L241.466 190.221L241.493 190.224L244.644 166.474L244.617 166.47Z" fill="white"/>
<path d="M242.965 226.417H242.992V201.186H242.965V226.417Z" fill="white"/>
<path d="M242.992 237.239H242.965V255.235H242.992V237.239Z" fill="white"/>
<path d="M106.681 194.111V169.275L106.599 169.284V194.111H106.681Z" fill="white"/>
<path d="M106.681 204.934H106.599V229.788H106.681V204.934Z" fill="white"/>
<path d="M194.982 205.086H194.963V229.797H194.982V205.086Z" fill="white"/>
<path d="M194.982 169.536H194.963V194.228H194.982V169.536Z" fill="white"/>
<path d="M255.856 255.235H242.965V237.257V235.738H254.931C257.136 235.738 258.923 233.689 258.923 231.163C258.923 228.637 257.108 226.588 254.931 226.588H242.965V226.435V201.186V196.691H254.931C257.136 196.691 258.923 194.651 258.923 192.125C258.923 189.599 257.108 187.55 254.931 187.55H242.938V166.336V157.653H254.904C257.109 157.653 258.896 155.613 258.896 153.087C258.896 150.561 257.081 148.511 254.904 148.511H242.91V135.028V123.828V118.768C242.91 118.714 242.91 118.669 242.91 118.615H254.913C257.118 118.615 258.905 116.565 258.905 114.039C258.905 111.514 257.09 109.473 254.913 109.473H241.695C239.921 102.609 236.229 96.3792 231.042 91.5C225.856 86.6207 219.386 83.2896 212.376 81.8891C205.365 80.4886 198.098 81.0755 191.409 83.5825C184.72 86.0895 178.88 90.4149 174.56 96.0619C170.165 83.1297 161.423 72.0843 149.794 64.773C138.166 57.4616 124.356 54.3275 110.675 55.8948C96.9937 57.4621 84.2704 63.6358 74.6326 73.3834C64.9948 83.131 59.0269 95.8616 57.7269 109.446H45.325C43.0751 109.446 41.2606 111.487 41.2606 114.013C41.2606 116.538 43.0751 118.588 45.325 118.588H57.4456V148.484H45.325C43.0751 148.484 41.2606 150.534 41.2606 153.06C41.2606 155.586 43.0751 157.626 45.325 157.626H57.4456V187.523H45.325C43.0751 187.523 41.2606 189.572 41.2606 192.098C41.2606 194.624 43.0751 196.664 45.325 196.664H57.4456V226.57H45.325C43.0751 226.57 41.2606 228.619 41.2606 231.145C41.2606 233.671 43.0751 235.72 45.325 235.72H57.4456V255.235H45.8603C41.1626 255.24 36.6587 257.091 33.3369 260.382C30.0152 263.673 28.1469 268.136 28.1421 272.79V320.098C28.1469 324.752 30.0152 329.215 33.3369 332.506C36.6587 335.797 41.1626 337.648 45.8603 337.653H48.8632L54.3066 413.311C54.5831 416.94 56.2318 420.332 58.9229 422.808C61.6141 425.284 65.1495 426.663 68.8222 426.669H229.465C233.06 426.666 236.528 425.351 239.206 422.975C241.884 420.599 243.584 417.328 243.981 413.788L252.563 337.653H255.847C260.547 337.651 265.053 335.801 268.377 332.509C271.7 329.218 273.57 324.754 273.575 320.098V272.79C273.57 268.136 271.702 263.673 268.38 260.382C265.058 257.091 260.554 255.24 255.856 255.235ZM177.735 118.75C177.865 111.698 180.784 104.979 185.862 100.038C190.941 95.0974 197.775 92.3291 204.893 92.3291C212.011 92.3291 218.844 95.0974 223.923 100.038C229.002 104.979 231.921 111.698 232.051 118.75V255.064H194.954V240.601V235.72H205.669C207.909 235.72 209.733 233.671 209.733 231.145C209.733 228.619 207.919 226.57 205.669 226.57H194.936V205.078V196.637H205.65C207.891 196.637 209.715 194.597 209.715 192.071C209.715 189.545 207.9 187.496 205.65 187.496H194.918V169.518V158.732V157.644H205.65C207.891 157.644 209.715 155.604 209.715 153.078C209.715 150.552 207.9 148.502 205.65 148.502H193.902C191.703 138.403 185.962 129.402 177.699 123.1L177.735 118.75ZM177.735 138.426C181.828 143.983 184.036 150.684 184.04 157.563V255.064H117.595V157.563C117.622 150.617 119.868 143.857 124.009 138.252C128.151 132.647 133.977 128.484 140.652 126.36C147.327 124.236 154.51 124.259 161.171 126.427C167.832 128.594 173.63 132.794 177.735 138.426ZM68.3595 114.839C68.5352 102.018 73.7994 89.7798 83.0128 80.7742C92.2263 71.7687 104.648 66.7196 117.59 66.7196C130.533 66.7196 142.954 71.7687 152.168 80.7742C161.381 89.7798 166.645 102.018 166.821 114.839V117.006C160.872 114.695 154.486 113.694 148.107 114.072C141.728 114.45 135.509 116.199 129.88 119.196C124.251 122.193 119.347 126.367 115.509 131.429C111.671 136.492 108.99 142.32 107.652 148.511H95.8576C93.6168 148.511 91.7933 150.561 91.7933 153.087C91.7933 155.613 93.6077 157.653 95.8576 157.653H106.645V158.444H106.554V169.293H106.645V187.55H95.894C93.6531 187.55 91.8295 189.599 91.8295 192.125C91.8295 194.651 93.644 196.691 95.894 196.691H106.59V204.952H106.681V226.57H95.894C93.6531 226.57 91.8295 228.619 91.8295 231.145C91.8295 233.671 93.644 235.72 95.894 235.72H106.59V240.601H106.681V255.064H68.3595V114.839ZM233.14 412.601C233.039 413.502 232.606 414.333 231.925 414.937C231.244 415.541 230.361 415.874 229.447 415.873H68.8041C67.8884 415.876 67.0056 415.536 66.3326 414.92C65.6596 414.305 65.2461 413.461 65.1752 412.556L59.7318 337.671H241.513L233.14 412.601ZM262.688 320.098C262.683 321.884 261.965 323.596 260.69 324.86C259.415 326.123 257.687 326.835 255.884 326.839H45.8603C44.0564 326.837 42.3272 326.126 41.0517 324.862C39.7761 323.599 39.0585 321.885 39.0561 320.098V272.79C39.0561 271.002 39.773 269.287 41.049 268.023C42.325 266.759 44.0557 266.048 45.8603 266.048H255.856C257.66 266.051 259.39 266.762 260.665 268.026C261.941 269.289 262.658 271.003 262.661 272.79L262.688 320.098Z" fill="white"/>
</g>
</svg>
