<svg width="114" height="178" viewBox="0 0 114 178" fill="none" xmlns="http://www.w3.org/2000/svg">
<g clip-path="url(#clip0_200_89)">
<path d="M93.07 105C81.58 109.32 70.72 114.75 68.54 127.72C67.91 131.91 67.94 136.03 66.39 139.83C63.47 143.37 60.82 147.03 58.67 150.88C61.11 134.1 61.35 116.69 58.98 99.79C59.06 99.7 59.12 99.59 59.12 99.45C59.44 90.33 62.95 83.08 67.54 75.79C69.03 74.86 70.66 74.14 72.33 73.3C81.09 68.7 91 64.18 93.66 53.68C96.5 42.53 90.09 29.29 86.68 18.75C81.98 29.86 70.91 36.87 66.43 48.03C62.56 57.53 65.71 67.5 64.1 77.12C61.12 82 58.54 87.28 57.86 92.87C56.41 84.99 54.36 77.26 51.69 69.79C50.97 65.66 49.78 61.64 49.29 57.57C47.82 45.93 48.75 34.95 40.39 25.39C30.75 14.53 14.7 8.23 2.69 0C4.49 7.05 7.56 13.75 10.34 20.6C16.56 37.06 21.54 52.95 37.52 62.04C40.81 63.85 46.62 66.09 49.56 69.29C55.09 84.94 57.59 101.43 57.94 118.13C56.06 114.54 53.34 111.25 50.16 108.24C49.94 107.5 49.73 106.76 49.47 106.07C44.07 84.92 24.47 83.02 5.55 77.8C14.39 85.62 15.44 98.79 26.78 105.19C33.45 108.75 41.42 108.15 48.35 110.51C52.42 114.37 55.85 118.71 57.99 123.85C57.89 138.34 56.26 152.93 53.7 167.22C52.49 164.49 50.97 161.97 49.22 159.63C49.27 158.3 49.33 156.93 49.36 155.66C50.46 126.24 21.38 124.76 0 114.88C2.95 119.44 5.41 124.1 7.59 128.91C13.65 140.88 18.75 153.76 32.83 157.88C36.91 159.01 42.14 158.42 46.2 159.81C48.83 162.74 51.24 165.93 53.16 169.65C53.18 169.69 53.21 169.71 53.24 169.75C52.82 172 52.38 174.26 51.92 176.5C51.77 177.22 52.81 177.52 53.02 176.8C55.02 170.01 56.65 162.98 57.88 155.82C61.35 150.59 65.01 145.65 69.04 140.9C70.82 140.66 72.66 140.87 74.68 141.13C84.35 141.69 95.8 146.02 104.19 138.51C112.92 130.62 113.19 108.46 113.96 97.2C107.1 99.98 100.08 102.49 93.07 105Z" fill="#A3B0A0"/>
</g>
<defs>
<clipPath id="clip0_200_89">
<rect width="113.95" height="177.2" fill="white"/>
</clipPath>
</defs>
</svg>
