<svg width="357" height="386" viewBox="0 0 357 386" fill="none" xmlns="http://www.w3.org/2000/svg">
<path d="M224.483 203.711C256.622 183.933 277.389 144.872 277.389 108.778C277.389 57.3556 235.361 0 178.5 0C121.639 0 79.6111 57.3556 79.6111 108.778C79.6111 144.872 100.378 183.933 132.517 203.711C56.3722 223.983 0.5 293.7 0.5 375.778C0.5 381.217 4.95 385.667 10.3889 385.667H346.611C352.05 385.667 356.5 381.217 356.5 375.778C356.5 293.7 300.628 223.983 224.483 203.711ZM99.3889 108.778C99.3889 57.85 141.417 19.7778 178.5 19.7778C215.583 19.7778 257.611 57.85 257.611 108.778C257.611 159.706 215.583 197.778 178.5 197.778C141.417 197.778 99.3889 159.706 99.3889 108.778ZM20.7722 365.889C25.7167 283.317 94.9389 217.556 178.5 217.556C262.061 217.556 331.283 283.317 336.228 365.889H20.7722Z" fill="#113530"/>
</svg>
